<svg width="334" height="334" viewBox="0 0 334 334" fill="none" xmlns="http://www.w3.org/2000/svg">
<circle cx="167" cy="167" r="167" fill="url(#paint0_linear)"/>
<g filter="url(#filter0_d)">
<path d="M220.135 227.451C220.135 231.211 223.507 234.72 228.822 236.698C227.76 242.516 228.632 247.206 231.541 249.033C234.532 250.912 238.988 249.611 243.217 245.586C247.339 249.449 251.506 250.969 254.413 249.137C257.401 247.253 258.31 242.245 257.219 236.246C262.755 234.253 265.851 231.26 265.851 227.451C265.851 223.779 262.474 220.602 257.231 218.637C258.405 212.389 257.41 207.813 254.38 205.91C251.458 204.076 247.243 205.675 243.06 209.639C238.709 205.431 234.536 204.147 231.509 206.055C228.59 207.895 227.757 212.67 228.822 218.595C223.686 220.545 220.135 223.794 220.135 227.451Z" fill="white"/>
<path d="M256.12 220.588C255.688 220.427 255.252 220.278 254.813 220.14C254.886 219.818 254.953 219.494 255.015 219.169C256.005 213.94 255.358 209.727 253.149 208.34C251.031 207.01 247.567 208.397 244.069 211.712C243.724 212.039 243.387 212.376 243.058 212.722C242.837 212.492 242.613 212.267 242.385 212.046C238.719 208.501 235.044 207.007 232.837 208.398C230.721 209.732 230.094 213.692 230.985 218.648C231.074 219.139 231.174 219.627 231.285 220.113C230.765 220.273 230.263 220.445 229.782 220.627C225.484 222.259 222.739 224.816 222.739 227.469C222.739 230.209 225.686 232.957 230.163 234.623C230.526 234.758 230.892 234.882 231.261 234.997C231.141 235.52 231.035 236.046 230.942 236.575C230.093 241.445 230.756 245.312 232.866 246.637C235.046 248.006 238.704 246.599 242.267 243.209C242.548 242.941 242.831 242.656 243.114 242.358C243.47 242.733 243.836 243.096 244.211 243.449C247.662 246.682 251.07 247.987 253.178 246.658C255.356 245.286 256.064 241.132 255.145 236.078C255.075 235.692 254.993 235.298 254.901 234.896C255.158 234.814 255.41 234.728 255.656 234.639C260.311 232.96 263.339 230.246 263.339 227.469C263.339 224.807 260.505 222.232 256.12 220.588V220.588Z" fill="#53C1DE"/>
<path d="M255.11 232.847C254.889 232.927 254.661 233.004 254.429 233.079C253.915 231.308 253.221 229.424 252.373 227.478C253.183 225.579 253.849 223.719 254.349 221.959C254.764 222.091 255.167 222.228 255.556 222.374C259.313 223.782 261.604 225.865 261.604 227.469C261.604 229.178 259.129 231.397 255.111 232.847H255.11ZM253.443 236.445C253.849 238.679 253.907 240.7 253.638 242.279C253.396 243.699 252.91 244.645 252.309 245.024C251.029 245.83 248.293 244.782 245.342 242.017C245.004 241.7 244.663 241.361 244.321 241.003C245.465 239.641 246.609 238.057 247.725 236.298C249.687 236.108 251.542 235.798 253.223 235.375C253.306 235.739 253.38 236.096 253.443 236.445V236.445ZM236.58 244.884C235.33 245.365 234.334 245.379 233.733 245.001C232.452 244.197 231.92 241.092 232.646 236.927C232.732 236.435 232.831 235.946 232.942 235.46C234.605 235.86 236.446 236.148 238.414 236.322C239.537 238.043 240.713 239.625 241.899 241.011C241.647 241.276 241.389 241.535 241.125 241.786C239.55 243.286 237.971 244.349 236.58 244.884H236.58ZM230.724 232.836C228.744 232.099 227.109 231.142 225.989 230.097C224.982 229.158 224.473 228.226 224.473 227.469C224.473 225.859 226.677 223.806 230.353 222.41C230.815 222.236 231.281 222.076 231.751 221.932C232.259 223.731 232.925 225.612 233.73 227.515C232.915 229.446 232.239 231.357 231.726 233.178C231.389 233.073 231.055 232.959 230.724 232.836V232.836ZM232.687 218.285C231.924 214.039 232.431 210.836 233.706 210.033C235.064 209.176 238.068 210.397 241.233 213.458C241.435 213.653 241.639 213.858 241.842 214.07C240.663 215.449 239.497 217.019 238.384 218.731C236.474 218.923 234.646 219.233 232.966 219.647C232.863 219.196 232.769 218.742 232.687 218.285V218.285ZM250.2 222.994C249.803 222.248 249.391 221.511 248.965 220.783C250.261 220.961 251.502 221.198 252.667 221.488C252.317 222.709 251.881 223.986 251.368 225.295C250.993 224.52 250.603 223.753 250.2 222.994V222.994ZM243.058 215.42C243.858 216.363 244.659 217.417 245.447 218.56C243.849 218.478 242.247 218.478 240.649 218.559C241.438 217.427 242.246 216.374 243.058 215.42V215.42ZM235.871 223.007C235.472 223.759 235.09 224.522 234.725 225.293C234.219 223.989 233.787 222.706 233.434 221.468C234.593 221.186 235.828 220.955 237.115 220.78C236.684 221.512 236.269 222.254 235.871 223.007V223.007ZM237.152 234.293C235.823 234.131 234.569 233.912 233.411 233.638C233.769 232.378 234.211 231.067 234.727 229.735C235.094 230.507 235.477 231.27 235.878 232.023C236.286 232.79 236.711 233.547 237.152 234.293V234.293ZM243.106 239.652C242.284 238.686 241.464 237.617 240.663 236.468C241.441 236.502 242.233 236.519 243.039 236.519C243.866 236.519 244.684 236.498 245.49 236.459C244.699 237.629 243.901 238.699 243.106 239.652ZM251.384 229.667C251.927 231.014 252.384 232.317 252.748 233.556C251.57 233.849 250.3 234.084 248.96 234.259C249.39 233.518 249.805 232.768 250.207 232.01C250.615 231.238 251.008 230.457 251.384 229.667V229.667ZM248.704 231.066C248.089 232.229 247.44 233.371 246.757 234.488C245.552 234.582 244.307 234.63 243.039 234.63C241.775 234.63 240.546 234.587 239.363 234.504C238.662 233.389 238 232.246 237.379 231.076C236.76 229.913 236.182 228.725 235.647 227.514C236.181 226.303 236.757 225.114 237.373 223.95V223.951C237.99 222.787 238.646 221.648 239.342 220.538C240.549 220.439 241.787 220.387 243.039 220.387C244.296 220.387 245.536 220.439 246.743 220.539C247.431 221.648 248.084 222.782 248.699 223.94C249.317 225.102 249.901 226.285 250.449 227.488C249.907 228.703 249.325 229.896 248.705 231.066H248.704ZM252.282 209.976C253.642 210.83 254.171 214.273 253.316 218.788C253.26 219.082 253.2 219.375 253.134 219.667C251.449 219.244 249.62 218.929 247.705 218.733C246.59 217.003 245.434 215.431 244.273 214.069C244.578 213.75 244.889 213.439 245.207 213.137C248.204 210.296 251.006 209.175 252.282 209.976V209.976Z" fill="white"/>
<path d="M243.039 223.521C245.041 223.521 246.664 225.289 246.664 227.469C246.664 229.649 245.041 231.417 243.039 231.417C241.037 231.417 239.413 229.649 239.413 227.469C239.413 225.289 241.037 223.521 243.039 223.521" fill="#53C1DE"/>
</g>
<g filter="url(#filter1_d)">
<path d="M167.461 241.592C167.164 241.526 166.874 241.435 166.584 241.351L166.365 241.286C166.081 241.201 165.8 241.111 165.52 241.017L165.404 240.976C165.153 240.89 164.905 240.799 164.658 240.705L164.449 240.625C164.179 240.52 163.91 240.412 163.645 240.298L163.484 240.228C163.256 240.127 163.03 240.025 162.805 239.919L162.609 239.827C162.433 239.743 162.258 239.654 162.084 239.566C161.968 239.506 161.849 239.449 161.734 239.386C161.521 239.275 161.312 239.159 161.105 239.041L160.892 238.925C160.616 238.766 160.343 238.601 160.073 238.434L159.852 238.29C159.656 238.166 159.461 238.041 159.268 237.91L159.081 237.781C158.895 237.653 158.712 237.523 158.529 237.392L158.285 237.211C158.118 237.086 157.952 236.96 157.788 236.83L157.566 236.656C157.357 236.488 157.151 236.319 156.947 236.146L156.879 236.09C156.658 235.9 156.442 235.706 156.228 235.511L156.045 235.338C155.886 235.19 155.73 235.042 155.577 234.889L155.393 234.71C155.198 234.515 155.007 234.317 154.819 234.116L154.791 234.087C154.592 233.874 154.398 233.657 154.208 233.438L154.056 233.261C153.914 233.094 153.774 232.925 153.636 232.754L153.483 232.567C153.318 232.358 153.157 232.149 152.999 231.936C148.632 226.11 147.063 218.074 150.554 211.474L147.459 215.313C143.496 220.886 143.989 228.137 147.017 234.059C147.089 234.201 147.164 234.34 147.238 234.48L147.38 234.747L147.468 234.9L147.626 235.177C147.72 235.339 147.817 235.5 147.915 235.662L148.08 235.927C148.189 236.1 148.301 236.27 148.416 236.441L148.559 236.656C148.716 236.887 148.878 237.117 149.045 237.342L149.059 237.36L149.141 237.468C149.284 237.663 149.433 237.855 149.583 238.044L149.75 238.252C149.884 238.417 150.02 238.581 150.159 238.744L150.315 238.927C150.502 239.141 150.692 239.354 150.885 239.564L150.897 239.575L150.919 239.599C151.108 239.801 151.302 239.999 151.498 240.196L151.684 240.38C151.836 240.529 151.991 240.677 152.147 240.823L152.336 240.999C152.544 241.191 152.755 241.38 152.97 241.564L152.98 241.572L153.09 241.664C153.279 241.824 153.472 241.983 153.666 242.139L153.905 242.325C154.063 242.45 154.224 242.572 154.385 242.692L154.642 242.883C154.819 243.012 154.999 243.138 155.18 243.261L155.376 243.397L155.43 243.435C155.602 243.551 155.778 243.662 155.954 243.774L156.18 243.921C156.449 244.088 156.723 244.253 156.999 244.412L157.225 244.537C157.428 244.651 157.633 244.764 157.84 244.874C157.952 244.933 158.067 244.989 158.18 245.045C158.326 245.12 158.471 245.196 158.62 245.269L158.722 245.317L158.902 245.402C159.132 245.51 159.364 245.616 159.599 245.718L159.746 245.782C160.015 245.897 160.286 246.008 160.56 246.113L160.758 246.189C161.011 246.285 161.267 246.379 161.525 246.468L161.621 246.5C161.904 246.597 162.189 246.687 162.477 246.774L162.684 246.835C162.976 246.921 163.265 247.024 163.567 247.078C182.736 250.498 188.304 235.81 188.304 235.81C183.627 241.77 175.326 243.342 167.461 241.592V241.592ZM160.556 226.393C160.986 226.996 161.462 227.712 162.031 228.196C162.238 228.418 162.454 228.636 162.675 228.849L162.844 229.012C163.058 229.216 163.276 229.415 163.501 229.609L163.528 229.632L163.534 229.638C163.783 229.852 164.04 230.057 164.302 230.259L164.475 230.392C164.737 230.589 165.004 230.782 165.278 230.966L165.301 230.983C165.422 231.065 165.545 231.14 165.668 231.219L165.841 231.331C166.037 231.454 166.235 231.574 166.436 231.688L166.52 231.736C166.694 231.834 166.87 231.93 167.046 232.024L167.233 232.119C167.355 232.181 167.477 232.245 167.601 232.305L167.657 232.33C167.909 232.451 168.164 232.569 168.425 232.68L168.594 232.748C168.802 232.834 169.012 232.919 169.223 232.997L169.493 233.094C169.684 233.164 169.877 233.227 170.071 233.291L170.332 233.373C170.607 233.456 170.88 233.562 171.167 233.609C185.967 236.007 189.384 224.86 189.384 224.86C186.304 229.199 180.339 231.27 173.974 229.653C173.691 229.581 173.413 229.502 173.136 229.416L172.884 229.337C172.687 229.274 172.492 229.208 172.298 229.139L172.033 229.043C171.821 228.963 171.61 228.88 171.402 228.794L171.232 228.723C170.971 228.612 170.713 228.495 170.46 228.372C170.329 228.31 170.201 228.244 170.073 228.18L169.849 228.067C169.685 227.98 169.521 227.889 169.359 227.796L169.242 227.731C169.042 227.617 168.845 227.499 168.649 227.377L168.47 227.26C168.342 227.179 168.213 227.095 168.086 227.012C167.813 226.827 167.548 226.635 167.286 226.439L167.106 226.3C164.32 224.149 162.112 221.208 161.062 217.873C159.961 214.415 160.199 210.533 162.105 207.383L159.763 210.617C156.896 214.652 157.052 220.054 159.288 224.322C159.663 225.038 160.085 225.733 160.556 226.393V226.393ZM176.156 221.401C176.277 221.445 176.399 221.485 176.523 221.526L176.685 221.576C176.859 221.63 177.032 221.692 177.212 221.725C185.384 223.27 187.601 217.623 188.191 216.791C186.249 219.526 182.986 220.183 178.982 219.232C178.666 219.157 178.318 219.045 178.013 218.939C177.622 218.803 177.237 218.648 176.863 218.472C176.152 218.138 175.474 217.733 174.846 217.269C171.264 214.609 169.038 209.536 171.376 205.405L170.111 207.11C168.421 209.543 168.255 212.565 169.428 215.251C170.664 218.103 173.198 220.34 176.156 221.401V221.401Z" fill="#0868AC"/>
</g>
<g filter="url(#filter2_d)">
<path d="M107.599 228.84C105.991 228.852 104.598 229.356 103.43 230.107C102.999 228.993 102.567 228.019 102.496 227.292C102.415 226.448 102.316 225.932 102.415 224.924C102.513 223.915 102.963 222.485 102.963 222.367C102.954 222.262 102.864 221.746 101.938 221.734C101.013 221.722 100.213 221.969 100.123 222.285C100.034 222.602 99.8538 223.329 99.737 224.079C99.5753 225.182 97.886 229.087 96.9246 231.139C96.6102 230.341 96.3406 229.638 96.2866 229.075C96.2058 228.23 96.1069 227.714 96.2058 226.706C96.3047 225.697 96.7539 224.267 96.7539 224.15C96.7449 224.044 96.6551 223.528 95.7297 223.516C94.8041 223.505 94.0045 223.751 93.9147 224.068C93.8248 224.384 93.726 225.135 93.5283 225.862C93.3396 226.589 91.0933 233.109 90.5092 234.809C90.2127 235.677 89.9522 236.369 89.7635 236.838C89.5748 237.307 89.7545 236.873 89.7365 236.92C89.5748 237.318 89.4849 237.541 89.4849 237.541V237.553C89.3591 237.846 89.2244 238.128 89.1614 238.128C89.1164 238.128 89.0266 237.342 89.1793 236.263C89.5118 234 90.3205 230.47 90.3116 230.341C90.3116 230.283 90.4642 229.661 89.7903 229.345C89.1344 229.028 88.9009 229.556 88.8469 229.556C88.793 229.556 88.7481 229.743 88.7481 229.743C88.7481 229.743 89.4758 225.768 87.3554 225.768C86.0255 225.768 84.1926 227.656 83.2851 229.38C82.71 229.79 81.488 230.658 80.1942 231.584C79.7 231.936 79.1878 232.312 78.7026 232.652L78.6039 232.511C76.0341 228.934 71.281 226.401 71.4787 221.593C71.5505 219.846 72.0178 215.238 80.6077 209.656C87.6431 205.083 93.2768 206.337 94.256 209.128C95.6487 213.115 91.246 220.526 83.9322 221.593C81.1468 222.004 79.6821 220.597 79.3138 220.069C78.9275 219.518 78.8735 219.494 78.7298 219.6C78.4962 219.764 78.6399 220.257 78.7298 220.55C78.9454 221.288 79.8439 222.602 81.3714 223.258C82.7101 223.833 85.9808 224.15 89.9343 222.156C94.364 219.916 97.8232 213.701 96.8079 208.507C95.7746 203.218 89.0537 201.483 82.7012 204.426C78.9184 206.185 74.8211 208.929 71.874 212.529C68.3698 216.797 67.8127 220.526 68.0463 222.074C68.8641 227.597 74.6954 231.197 77.0315 233.859C76.9147 233.941 76.8069 234.023 76.708 234.094C75.54 234.844 71.0923 237.881 69.9781 241.094C68.7202 244.729 70.1758 247.345 71.1462 247.696C74.1473 248.787 77.2202 246.829 78.8824 243.604C80.5356 240.379 80.338 236.193 79.5743 234.281L79.5472 234.211L80.4637 233.507C81.0568 233.05 81.6409 232.628 82.1529 232.264C81.8655 233.284 81.6588 234.492 81.551 236.251C81.4252 238.315 82.0722 240.989 82.9258 242.044C83.3031 242.501 83.7524 242.513 84.0309 242.513C85.0193 242.513 85.4686 241.446 85.9627 240.168C86.5737 238.608 87.1128 236.802 87.1128 236.802C87.1128 236.802 86.439 241.692 88.2809 241.692C88.9548 241.692 89.6287 240.555 89.9342 239.969V239.98C89.9342 239.98 89.9522 239.945 89.9881 239.863C90.0258 239.79 90.0618 239.716 90.0959 239.64V239.617C90.3655 239.007 90.9675 237.612 91.866 235.302C93.025 232.323 94.1392 228.594 94.1392 228.594C94.1392 228.594 94.2471 229.509 94.5795 231.01C94.7771 231.901 95.2084 232.874 95.5408 233.824C95.2713 234.317 95.1095 234.598 95.1095 234.598L95.1185 234.61C94.903 234.985 94.6603 235.384 94.4088 235.782C93.4923 237.213 92.3961 238.843 92.2524 239.312C92.0816 239.863 92.1176 240.274 92.45 240.602C92.6926 240.837 93.1239 240.883 93.5822 240.837C94.4088 240.766 94.9838 240.497 95.2714 240.332C95.7206 240.121 96.2328 239.805 96.727 239.336C97.6255 238.468 98.1736 237.237 98.1197 235.595C98.0927 234.692 97.8681 233.801 97.5895 232.956C97.6704 232.804 97.7514 232.651 97.8321 232.487C99.2518 229.778 100.348 226.8 100.348 226.8C100.348 226.8 100.456 227.715 100.788 229.216C100.959 229.978 101.3 230.811 101.606 231.632C100.276 233.05 99.4405 234.692 99.153 235.771C98.6228 237.764 99.0361 238.667 99.8179 238.878C100.168 238.972 100.671 238.761 101.049 238.55C101.516 238.351 102.082 238.011 102.603 237.506C103.502 236.639 104.364 235.431 104.319 233.801C104.292 233.05 104.14 232.312 103.933 231.608C105.065 230.998 106.53 230.646 108.39 230.94C112.388 231.549 113.179 234.809 113.026 236.17C112.873 237.53 112.038 238.28 111.759 238.515C111.481 238.738 111.391 238.82 111.418 238.984C111.454 239.23 111.579 239.218 111.822 239.172C112.154 239.101 113.925 238.058 113.996 235.548C114.104 232.323 111.759 228.805 107.599 228.84V228.84ZM76.7619 242.408C75.4411 244.296 73.5812 245.011 72.7905 244.401C71.9369 243.756 72.2693 240.977 73.8957 238.972C74.884 237.752 76.1689 236.627 77.0135 235.935C77.2022 235.782 77.4897 235.56 77.8312 235.29C77.8851 235.243 77.921 235.219 77.921 235.219C77.9839 235.173 78.0558 235.114 78.1277 235.055C78.7297 237.917 78.1546 240.426 76.7619 242.408V242.408ZM86.421 233.836C85.9627 235.302 84.9923 239.066 84.4083 238.855C83.905 238.679 83.5996 235.829 84.3094 233.015C84.6688 231.596 85.4325 229.907 85.8818 229.251C86.6097 228.195 87.4003 227.843 87.598 228.277C87.8317 228.84 86.7085 232.921 86.421 233.836ZM94.3908 238.808C94.1931 238.937 94.0134 239.031 93.9326 238.96C93.8697 238.913 94.0134 238.737 94.0134 238.737C94.0134 238.737 95.0107 237.342 95.4061 236.697C95.6307 236.322 95.9002 235.888 96.1878 235.395V235.536C96.1879 237.225 94.9479 238.35 94.3908 238.808ZM100.537 236.978C100.393 236.838 100.411 236.404 100.896 235.044C101.085 234.504 101.516 233.601 102.262 232.745C102.352 233.097 102.406 233.437 102.397 233.754C102.388 235.864 101.238 236.65 100.537 236.978Z" fill="#CF649A"/>
</g>
<g clip-path="url(#clip0)" filter="url(#filter3_d)">
<path d="M303.132 165.495L283.048 145.849C281.893 144.717 280.017 144.717 278.859 145.849L274.689 149.929L279.979 155.104C281.209 154.698 282.618 154.97 283.598 155.929C284.583 156.894 284.86 158.285 284.434 159.491L289.533 164.479C290.767 164.064 292.19 164.333 293.175 165.298C294.552 166.644 294.552 168.827 293.175 170.174C291.798 171.522 289.567 171.522 288.189 170.174C287.153 169.16 286.897 167.672 287.422 166.424L282.667 161.772L282.666 174.013C283.011 174.18 283.326 174.4 283.598 174.665C284.975 176.012 284.975 178.194 283.598 179.543C282.221 180.889 279.989 180.889 278.614 179.543C277.237 178.194 277.237 176.012 278.614 174.665C278.944 174.342 279.336 174.087 279.768 173.913V161.558C279.335 161.385 278.943 161.129 278.614 160.805C277.571 159.786 277.32 158.289 277.854 157.036L272.639 151.933L258.868 165.404C257.711 166.537 257.711 168.372 258.868 169.504L278.952 189.15C280.109 190.282 281.984 190.282 283.142 189.15L303.132 169.595C304.289 168.463 304.289 166.627 303.132 165.495" fill="#DE4C36"/>
</g>
<g clip-path="url(#clip1)" filter="url(#filter4_d)">
<path fill-rule="evenodd" clip-rule="evenodd" d="M205 145C217.703 145 228 155.327 228 168.069C228 178.259 221.417 186.904 212.284 189.957C211.118 190.184 210.704 189.464 210.704 188.85C210.704 188.089 210.732 185.605 210.732 182.518C210.732 180.367 209.996 178.963 209.17 178.248C214.292 177.676 219.674 175.725 219.674 166.865C219.674 164.345 218.782 162.289 217.305 160.673C217.544 160.09 218.333 157.744 217.08 154.567C217.08 154.567 215.152 153.949 210.761 156.932C208.886 156.421 206.947 156.159 205 156.156C203.054 156.159 201.117 156.421 199.243 156.932C194.848 153.949 192.916 154.567 192.916 154.567C191.667 157.744 192.456 160.09 192.693 160.673C191.223 162.289 190.324 164.345 190.324 166.865C190.324 175.703 195.694 177.684 200.803 178.267C200.145 178.843 199.549 179.859 199.342 181.35C198.031 181.94 194.701 182.96 192.649 179.434C192.649 179.434 191.432 177.218 189.123 177.056C189.123 177.056 186.881 177.027 188.967 178.458C188.967 178.458 190.473 179.167 191.52 181.833C191.52 181.833 192.87 185.95 199.268 184.555C199.28 186.483 199.301 188.301 199.301 188.85C199.301 189.459 198.877 190.173 197.73 189.959C188.589 186.911 182 178.262 182 168.069C182 155.327 192.299 145 205 145Z" fill="black"/>
</g>
<g filter="url(#filter5_d)">
<path d="M122.376 172.544L110.973 181.195L106 178.783V156.235L110.954 153.805L122.277 162.476L140.206 145L152 149.575V185.349L140.265 190L122.376 172.544ZM139.854 175.587V159.413L129.121 167.51L139.854 175.587ZM111.367 172.677L117.009 167.682L111.367 162.204V172.677Z" fill="#0179CB"/>
</g>
<g filter="url(#filter6_d)">
<path d="M53 190C65.7025 190 76 179.926 76 167.5C76 155.074 65.7025 145 53 145C40.2975 145 30 155.074 30 167.5C30 179.926 40.2975 190 53 190Z" fill="#525967"/>
<path d="M48.8481 178C49.8424 178 50.7961 177.648 51.4992 177.022C52.2023 176.395 52.5973 175.545 52.5973 174.66V171.254H48.8481C47.8537 171.254 46.9001 171.606 46.197 172.233C45.4939 172.859 45.0989 173.709 45.0989 174.595C45.0989 175.48 45.4939 176.33 46.197 176.956C46.9001 177.583 47.8537 177.935 48.8481 177.935V178Z" fill="#0ACF83"/>
<path d="M45.0073 168.001C45.0199 167.562 45.1295 167.13 45.3296 166.729C45.5298 166.328 45.8167 165.966 46.1739 165.664C46.5312 165.362 46.9517 165.125 47.4116 164.968C47.8714 164.81 48.3615 164.735 48.8539 164.747H52.5057V171.254H48.8539C48.3615 171.266 47.8714 171.191 47.4116 171.033C46.9517 170.876 46.5312 170.64 46.1739 170.338C45.8167 170.035 45.5298 169.673 45.3296 169.272C45.1295 168.871 45.0199 168.439 45.0073 168.001Z" fill="#A259FF"/>
<path d="M45.0013 161.32C45.0044 160.876 45.1069 160.436 45.3028 160.028C45.4987 159.619 45.7841 159.25 46.1423 158.941C46.5005 158.632 46.9243 158.389 47.3889 158.228C47.8534 158.067 48.3494 157.99 48.8479 158.001H52.4997V164.747H48.8479C48.3391 164.759 47.8329 164.678 47.3602 164.51C46.8874 164.342 46.458 164.09 46.0981 163.77C45.7382 163.449 45.4554 163.066 45.2668 162.645C45.0782 162.224 44.9879 161.773 45.0013 161.32Z" fill="#F24E1E"/>
<path d="M52.4998 158H56.1516C57.1556 158 58.1185 158.356 58.8285 158.988C59.5385 159.621 59.9373 160.479 59.9373 161.373C59.9373 162.268 59.5385 163.126 58.8285 163.758C58.1185 164.391 57.1556 164.746 56.1516 164.746H52.4998V158Z" fill="#FF7262"/>
<path d="M59.9988 168.001C60.0178 168.661 59.8166 169.311 59.4207 169.87C59.0248 170.428 58.4519 170.87 57.7744 171.138C57.097 171.407 56.3454 171.49 55.6148 171.378C54.8841 171.266 54.2071 170.964 53.6694 170.509C53.1317 170.054 52.7575 169.467 52.5939 168.823C52.4304 168.179 52.4849 167.506 52.7507 166.889C53.0164 166.272 53.4814 165.74 54.0868 165.358C54.6923 164.977 55.411 164.764 56.1522 164.747C56.6446 164.735 57.1347 164.81 57.5945 164.968C58.0544 165.125 58.4749 165.362 58.8322 165.664C59.1894 165.966 59.4763 166.328 59.6765 166.729C59.8766 167.13 59.9862 167.562 59.9988 168.001V168.001Z" fill="#1ABCFE"/>
</g>
<g filter="url(#filter7_d)">
<path d="M298.527 95.6643L282.68 86.6625C281.68 86.1057 280.379 86.1057 279.372 86.6625L263.355 95.6643C262.324 96.2447 261.594 97.3356 261.594 98.5025V116.482C261.594 117.649 262.343 118.74 263.374 119.324L267.606 121.675C269.628 122.65 270.343 122.65 271.263 122.65C274.258 122.65 275.969 120.878 275.969 117.788V100.038C275.969 99.7871 275.835 99.4141 275.584 99.4141H273.563C273.307 99.4141 272.734 99.7871 272.734 100.037V117.788C272.734 119.157 271.468 120.52 269.101 119.363L264.729 116.897C264.576 116.816 264.469 116.654 264.469 116.482V98.5025C264.469 98.333 264.668 98.1628 264.822 98.076L280.787 89.0897C280.936 89.0071 281.155 89.0071 281.304 89.0897L297.074 98.0739C297.225 98.1628 297.172 98.3277 297.172 98.5025V116.482C297.172 116.654 297.237 116.821 297.088 116.903L281.245 125.895C281.109 125.975 280.94 125.975 280.792 125.895L276.728 123.522C276.606 123.452 276.46 123.428 276.343 123.492C275.212 124.119 275.003 124.202 273.943 124.562C273.682 124.651 273.297 124.805 274.09 125.24L279.408 128.317C279.918 128.606 280.496 128.755 281.078 128.755C281.668 128.755 282.246 128.606 282.756 128.317L298.527 119.324C299.558 118.736 300.047 117.649 300.047 116.482V98.5025C300.047 97.3356 299.558 96.2475 298.527 95.6643ZM285.999 113.633C281.785 113.633 280.857 112.496 280.547 110.446C280.511 110.225 280.32 109.961 280.09 109.961H278.03C277.776 109.961 277.571 110.263 277.571 110.511C277.571 113.136 279.03 116.316 285.999 116.316C291.045 116.316 293.937 114.399 293.937 111.005C293.937 107.64 291.613 106.756 286.72 106.123C281.774 105.483 281.272 105.16 281.272 104.027C281.272 103.092 281.698 101.846 285.36 101.846C288.632 101.846 289.838 102.533 290.334 104.691C290.376 104.894 290.566 105.039 290.78 105.039H292.848C292.975 105.039 293.096 104.989 293.185 104.9C293.272 104.804 293.317 104.684 293.306 104.556C292.986 100.84 290.462 99.1089 285.359 99.1089C280.82 99.1089 278.112 100.984 278.112 104.127C278.112 107.537 280.806 108.479 285.164 108.901C290.376 109.401 290.782 110.146 290.782 111.149C290.782 112.891 289.352 113.633 285.999 113.633Z" fill="#83CD29"/>
</g>
<g filter="url(#filter8_d)">
<path d="M182 86H228V131H182V86Z" fill="#F7DF1E"/>
<path d="M194.095 123.605L197.615 121.521C198.294 122.699 198.912 123.696 200.394 123.696C201.815 123.696 202.71 123.152 202.71 121.038V106.659H207.033V121.098C207.033 125.478 204.408 127.471 200.579 127.471C197.121 127.471 195.114 125.719 194.095 123.605L194.095 123.605ZM209.381 123.152L212.901 121.158C213.827 122.639 215.032 123.726 217.162 123.726C218.953 123.726 220.095 122.85 220.095 121.642C220.095 120.192 218.922 119.678 216.946 118.833L215.865 118.379C212.747 117.081 210.678 115.449 210.678 112.006C210.678 108.834 213.148 106.417 217.008 106.417C219.756 106.417 221.732 107.354 223.152 109.801L219.787 111.915C219.045 110.617 218.243 110.103 217.008 110.103C215.742 110.103 214.939 110.888 214.939 111.915C214.939 113.184 215.742 113.698 217.594 114.483L218.675 114.936C222.349 116.477 224.418 118.048 224.418 121.581C224.418 125.388 221.361 127.472 217.255 127.472C213.24 127.472 210.647 125.599 209.381 123.152" fill="black"/>
</g>
<g filter="url(#filter9_d)">
<path d="M152 86H106L110.059 126.263L129 131L147.941 126.263L152 86Z" fill="#0277BD"/>
<path d="M129 89.5526V127.327L144.153 123.539L147.535 89.5526H129Z" fill="#039BE5"/>
<path d="M141.314 95.4736H129V100.21H135.627L135.226 104.947H129V109.684H134.95L134.55 115.013L129 116.669V121.647L139.686 118.566L140.638 104.947L141.314 95.4736Z" fill="white"/>
<path d="M129 95.4736V100.21H116.962L116.554 95.4736H129ZM122.774 104.947L123.05 109.684H129V104.947H122.774ZM123.319 112.053H117.907L118.313 118.566L129 121.647V116.669L123.45 115.013L123.319 112.053Z" fill="#EEEEEE"/>
</g>
<g filter="url(#filter10_d)">
<path d="M36.3789 126.43L32.6953 86H73.2148L69.5312 126.43L52.9102 131" fill="#E34F26"/>
<path d="M53 127.484L66.3867 123.881L69.5312 89.252H53" fill="#EF652A"/>
<path d="M53 104.281H46.2617L45.8125 99.1836H53V94.2617H40.2422L41.5898 109.291H53V104.281ZM52.9102 117.201L47.25 115.707L46.8906 111.752H41.8594L42.4883 119.574L52.9102 122.387V117.201Z" fill="#EBEBEB"/>
<path d="M52.9102 104.281V109.291H59.1992L58.5703 115.707L52.9102 117.201V122.387L63.332 119.574L64.7695 104.281H52.9102ZM52.9102 94.2617V99.1836H65.2188L65.668 94.2617H52.9102Z" fill="white"/>
</g>
<defs>
<filter id="filter0_d" x="216" y="205" width="54" height="53" filterUnits="userSpaceOnUse" color-interpolation-filters="sRGB">
<feFlood flood-opacity="0" result="BackgroundImageFix"/>
<feColorMatrix in="SourceAlpha" type="matrix" values="0 0 0 0 0 0 0 0 0 0 0 0 0 0 0 0 0 0 127 0"/>
<feOffset dy="4"/>
<feGaussianBlur stdDeviation="2"/>
<feColorMatrix type="matrix" values="0 0 0 0 0 0 0 0 0 0 0 0 0 0 0 0 0 0 0.25 0"/>
<feBlend mode="normal" in2="BackgroundImageFix" result="effect1_dropShadow"/>
<feBlend mode="normal" in="SourceGraphic" in2="effect1_dropShadow" result="shape"/>
</filter>
<filter id="filter1_d" x="140" y="204" width="54" height="53" filterUnits="userSpaceOnUse" color-interpolation-filters="sRGB">
<feFlood flood-opacity="0" result="BackgroundImageFix"/>
<feColorMatrix in="SourceAlpha" type="matrix" values="0 0 0 0 0 0 0 0 0 0 0 0 0 0 0 0 0 0 127 0"/>
<feOffset dy="4"/>
<feGaussianBlur stdDeviation="2"/>
<feColorMatrix type="matrix" values="0 0 0 0 0 0 0 0 0 0 0 0 0 0 0 0 0 0 0.25 0"/>
<feBlend mode="normal" in2="BackgroundImageFix" result="effect1_dropShadow"/>
<feBlend mode="normal" in="SourceGraphic" in2="effect1_dropShadow" result="shape"/>
</filter>
<filter id="filter2_d" x="64" y="203" width="54" height="53" filterUnits="userSpaceOnUse" color-interpolation-filters="sRGB">
<feFlood flood-opacity="0" result="BackgroundImageFix"/>
<feColorMatrix in="SourceAlpha" type="matrix" values="0 0 0 0 0 0 0 0 0 0 0 0 0 0 0 0 0 0 127 0"/>
<feOffset dy="4"/>
<feGaussianBlur stdDeviation="2"/>
<feColorMatrix type="matrix" values="0 0 0 0 0 0 0 0 0 0 0 0 0 0 0 0 0 0 0.25 0"/>
<feBlend mode="normal" in2="BackgroundImageFix" result="effect1_dropShadow"/>
<feBlend mode="normal" in="SourceGraphic" in2="effect1_dropShadow" result="shape"/>
</filter>
<filter id="filter3_d" x="254" y="145" width="54" height="53" filterUnits="userSpaceOnUse" color-interpolation-filters="sRGB">
<feFlood flood-opacity="0" result="BackgroundImageFix"/>
<feColorMatrix in="SourceAlpha" type="matrix" values="0 0 0 0 0 0 0 0 0 0 0 0 0 0 0 0 0 0 127 0"/>
<feOffset dy="4"/>
<feGaussianBlur stdDeviation="2"/>
<feColorMatrix type="matrix" values="0 0 0 0 0 0 0 0 0 0 0 0 0 0 0 0 0 0 0.25 0"/>
<feBlend mode="normal" in2="BackgroundImageFix" result="effect1_dropShadow"/>
<feBlend mode="normal" in="SourceGraphic" in2="effect1_dropShadow" result="shape"/>
</filter>
<filter id="filter4_d" x="178" y="145" width="54" height="53" filterUnits="userSpaceOnUse" color-interpolation-filters="sRGB">
<feFlood flood-opacity="0" result="BackgroundImageFix"/>
<feColorMatrix in="SourceAlpha" type="matrix" values="0 0 0 0 0 0 0 0 0 0 0 0 0 0 0 0 0 0 127 0"/>
<feOffset dy="4"/>
<feGaussianBlur stdDeviation="2"/>
<feColorMatrix type="matrix" values="0 0 0 0 0 0 0 0 0 0 0 0 0 0 0 0 0 0 0.25 0"/>
<feBlend mode="normal" in2="BackgroundImageFix" result="effect1_dropShadow"/>
<feBlend mode="normal" in="SourceGraphic" in2="effect1_dropShadow" result="shape"/>
</filter>
<filter id="filter5_d" x="102" y="145" width="54" height="53" filterUnits="userSpaceOnUse" color-interpolation-filters="sRGB">
<feFlood flood-opacity="0" result="BackgroundImageFix"/>
<feColorMatrix in="SourceAlpha" type="matrix" values="0 0 0 0 0 0 0 0 0 0 0 0 0 0 0 0 0 0 127 0"/>
<feOffset dy="4"/>
<feGaussianBlur stdDeviation="2"/>
<feColorMatrix type="matrix" values="0 0 0 0 0 0 0 0 0 0 0 0 0 0 0 0 0 0 0.25 0"/>
<feBlend mode="normal" in2="BackgroundImageFix" result="effect1_dropShadow"/>
<feBlend mode="normal" in="SourceGraphic" in2="effect1_dropShadow" result="shape"/>
</filter>
<filter id="filter6_d" x="26" y="145" width="54" height="53" filterUnits="userSpaceOnUse" color-interpolation-filters="sRGB">
<feFlood flood-opacity="0" result="BackgroundImageFix"/>
<feColorMatrix in="SourceAlpha" type="matrix" values="0 0 0 0 0 0 0 0 0 0 0 0 0 0 0 0 0 0 127 0"/>
<feOffset dy="4"/>
<feGaussianBlur stdDeviation="2"/>
<feColorMatrix type="matrix" values="0 0 0 0 0 0 0 0 0 0 0 0 0 0 0 0 0 0 0.25 0"/>
<feBlend mode="normal" in2="BackgroundImageFix" result="effect1_dropShadow"/>
<feBlend mode="normal" in="SourceGraphic" in2="effect1_dropShadow" result="shape"/>
</filter>
<filter id="filter7_d" x="254" y="85" width="54" height="53" filterUnits="userSpaceOnUse" color-interpolation-filters="sRGB">
<feFlood flood-opacity="0" result="BackgroundImageFix"/>
<feColorMatrix in="SourceAlpha" type="matrix" values="0 0 0 0 0 0 0 0 0 0 0 0 0 0 0 0 0 0 127 0"/>
<feOffset dy="4"/>
<feGaussianBlur stdDeviation="2"/>
<feColorMatrix type="matrix" values="0 0 0 0 0 0 0 0 0 0 0 0 0 0 0 0 0 0 0.25 0"/>
<feBlend mode="normal" in2="BackgroundImageFix" result="effect1_dropShadow"/>
<feBlend mode="normal" in="SourceGraphic" in2="effect1_dropShadow" result="shape"/>
</filter>
<filter id="filter8_d" x="178" y="86" width="54" height="53" filterUnits="userSpaceOnUse" color-interpolation-filters="sRGB">
<feFlood flood-opacity="0" result="BackgroundImageFix"/>
<feColorMatrix in="SourceAlpha" type="matrix" values="0 0 0 0 0 0 0 0 0 0 0 0 0 0 0 0 0 0 127 0"/>
<feOffset dy="4"/>
<feGaussianBlur stdDeviation="2"/>
<feColorMatrix type="matrix" values="0 0 0 0 0 0 0 0 0 0 0 0 0 0 0 0 0 0 0.25 0"/>
<feBlend mode="normal" in2="BackgroundImageFix" result="effect1_dropShadow"/>
<feBlend mode="normal" in="SourceGraphic" in2="effect1_dropShadow" result="shape"/>
</filter>
<filter id="filter9_d" x="102" y="86" width="54" height="53" filterUnits="userSpaceOnUse" color-interpolation-filters="sRGB">
<feFlood flood-opacity="0" result="BackgroundImageFix"/>
<feColorMatrix in="SourceAlpha" type="matrix" values="0 0 0 0 0 0 0 0 0 0 0 0 0 0 0 0 0 0 127 0"/>
<feOffset dy="4"/>
<feGaussianBlur stdDeviation="2"/>
<feColorMatrix type="matrix" values="0 0 0 0 0 0 0 0 0 0 0 0 0 0 0 0 0 0 0.25 0"/>
<feBlend mode="normal" in2="BackgroundImageFix" result="effect1_dropShadow"/>
<feBlend mode="normal" in="SourceGraphic" in2="effect1_dropShadow" result="shape"/>
</filter>
<filter id="filter10_d" x="26" y="86" width="54" height="53" filterUnits="userSpaceOnUse" color-interpolation-filters="sRGB">
<feFlood flood-opacity="0" result="BackgroundImageFix"/>
<feColorMatrix in="SourceAlpha" type="matrix" values="0 0 0 0 0 0 0 0 0 0 0 0 0 0 0 0 0 0 127 0"/>
<feOffset dy="4"/>
<feGaussianBlur stdDeviation="2"/>
<feColorMatrix type="matrix" values="0 0 0 0 0 0 0 0 0 0 0 0 0 0 0 0 0 0 0.25 0"/>
<feBlend mode="normal" in2="BackgroundImageFix" result="effect1_dropShadow"/>
<feBlend mode="normal" in="SourceGraphic" in2="effect1_dropShadow" result="shape"/>
</filter>
<linearGradient id="paint0_linear" x1="325.65" y1="317.3" x2="16.7" y2="8.35001" gradientUnits="userSpaceOnUse">
<stop stop-color="#504EC7"/>
<stop offset="1" stop-color="#EA19EE"/>
</linearGradient>
<clipPath id="clip0">
<rect width="46" height="45" fill="white" transform="translate(258 145)"/>
</clipPath>
<clipPath id="clip1">
<rect width="46" height="45" fill="white" transform="translate(182 145)"/>
</clipPath>
</defs>
</svg>
