<svg width="1284" height="554" viewBox="0 0 1284 554" fill="none" xmlns="http://www.w3.org/2000/svg">
<path d="M47 276.5C47 148.094 151.094 44 279.5 44H1284V509H279.5C151.094 509 47 404.906 47 276.5Z" fill="url(#paint0_linear)"/>
<path d="M0 277C0 124.017 124.017 0 277 0H1284V554H277C124.017 554 0 429.983 0 277Z" fill="#504EC7" fill-opacity="0.05"/>
<rect x="41" y="153" width="143" height="9" rx="4.5" fill="#E21CEC"/>
<rect x="21" y="175" width="143" height="9" rx="4.5" fill="#E21CEC"/>
<rect x="59" y="445" width="143" height="9" rx="4.5" fill="#E21CEC"/>
<rect x="59" y="393" width="109" height="9" rx="4.5" fill="#F6F6FC"/>
<rect x="141" y="74" width="47" height="9" rx="4.5" fill="#F6F6FC"/>
<rect x="86" y="418" width="109" height="9" rx="4.5" fill="#F6F6FC"/>
<rect x="151" y="45" width="109" height="9" rx="4.5" fill="#E21CEC"/>
<g filter="url(#filter0_d)">
<path d="M932.188 360.93C932.188 366.277 936.879 371.268 944.273 374.082C942.797 382.357 944.009 389.026 948.057 391.625C952.218 394.296 958.417 392.447 964.301 386.722C970.037 392.216 975.833 394.378 979.878 391.772C984.035 389.093 985.299 381.971 983.782 373.438C991.484 370.604 995.792 366.348 995.792 360.93C995.792 355.708 991.093 351.19 983.798 348.394C985.432 339.508 984.048 333.001 979.832 330.295C975.767 327.686 969.903 329.96 964.084 335.597C958.029 329.614 952.223 327.787 948.011 330.5C943.951 333.117 942.792 339.908 944.273 348.335C937.128 351.108 932.188 355.729 932.188 360.93Z" fill="white"/>
<path d="M982.255 351.17C981.654 350.941 981.048 350.728 980.437 350.532C980.538 350.074 980.632 349.614 980.718 349.152C982.094 341.715 981.194 335.723 978.121 333.751C975.174 331.859 970.355 333.831 965.487 338.546C965.008 339.012 964.539 339.491 964.081 339.983C963.774 339.656 963.462 339.335 963.145 339.02C958.044 333.979 952.931 331.855 949.86 333.833C946.916 335.73 946.044 341.363 947.284 348.411C947.407 349.109 947.546 349.803 947.701 350.493C946.978 350.722 946.279 350.966 945.61 351.225C939.63 353.546 935.811 357.183 935.811 360.956C935.811 364.853 939.911 368.761 946.14 371.131C946.645 371.322 947.154 371.499 947.667 371.662C947.501 372.406 947.353 373.154 947.224 373.907C946.042 380.833 946.965 386.332 949.901 388.218C952.934 390.164 958.024 388.163 962.98 383.341C963.372 382.96 963.765 382.555 964.159 382.132C964.655 382.664 965.164 383.181 965.686 383.682C970.487 388.281 975.228 390.138 978.162 388.247C981.192 386.295 982.176 380.387 980.898 373.2C980.8 372.651 980.686 372.09 980.559 371.519C980.916 371.401 981.267 371.28 981.609 371.154C988.085 368.766 992.299 364.905 992.299 360.956C992.299 357.17 988.356 353.508 982.255 351.17V351.17Z" fill="#53C1DE"/>
<path d="M980.848 368.604C980.539 368.718 980.223 368.828 979.9 368.935C979.185 366.416 978.22 363.737 977.039 360.969C978.166 358.267 979.093 355.623 979.788 353.12C980.366 353.307 980.927 353.503 981.467 353.71C986.695 355.713 989.883 358.674 989.883 360.956C989.883 363.387 986.439 366.542 980.848 368.604H980.848ZM978.528 373.721C979.094 376.9 979.174 379.773 978.8 382.02C978.463 384.038 977.787 385.384 976.95 385.923C975.17 387.07 971.363 385.579 967.258 381.646C966.787 381.196 966.313 380.714 965.838 380.205C967.429 378.267 969.02 376.014 970.572 373.513C973.303 373.243 975.883 372.802 978.223 372.2C978.338 372.718 978.44 373.225 978.528 373.721V373.721ZM955.067 385.725C953.328 386.408 951.943 386.428 951.106 385.89C949.324 384.747 948.584 380.331 949.594 374.408C949.714 373.708 949.851 373.012 950.006 372.32C952.32 372.89 954.881 373.3 957.618 373.547C959.181 375.995 960.818 378.245 962.467 380.215C962.116 380.593 961.758 380.961 961.391 381.318C959.199 383.451 957.003 384.964 955.068 385.725H955.067ZM946.92 368.589C944.165 367.541 941.891 366.18 940.332 364.694C938.931 363.358 938.223 362.032 938.223 360.956C938.223 358.667 941.29 355.746 946.404 353.762C947.046 353.514 947.695 353.287 948.348 353.081C949.055 355.64 949.983 358.316 951.101 361.021C949.968 363.768 949.028 366.486 948.314 369.075C947.846 368.926 947.381 368.764 946.92 368.589V368.589ZM949.651 347.895C948.589 341.856 949.294 337.301 951.068 336.157C952.958 334.94 957.137 336.676 961.541 341.029C961.822 341.307 962.105 341.599 962.388 341.9C960.748 343.861 959.126 346.094 957.577 348.528C954.92 348.802 952.377 349.242 950.039 349.832C949.895 349.19 949.766 348.544 949.651 347.895V347.895ZM974.016 354.592C973.464 353.53 972.891 352.482 972.299 351.448C974.101 351.701 975.828 352.038 977.449 352.45C976.962 354.186 976.356 356.002 975.641 357.864C975.119 356.761 974.577 355.67 974.016 354.592V354.592ZM964.08 343.819C965.193 345.161 966.308 346.66 967.404 348.286C965.18 348.169 962.952 348.168 960.728 348.284C961.825 346.673 962.95 345.177 964.08 343.819V343.819ZM954.08 354.61C953.526 355.68 952.995 356.764 952.486 357.862C951.783 356.007 951.182 354.183 950.691 352.421C952.303 352.02 954.021 351.692 955.812 351.443C955.212 352.483 954.635 353.539 954.08 354.61V354.61ZM955.863 370.661C954.014 370.431 952.269 370.12 950.658 369.73C951.156 367.937 951.771 366.074 952.489 364.179C952.999 365.277 953.533 366.362 954.09 367.432C954.658 368.524 955.249 369.601 955.863 370.661V370.661ZM964.147 378.283C963.003 376.909 961.862 375.389 960.748 373.755C961.83 373.803 962.932 373.826 964.053 373.826C965.205 373.826 966.343 373.798 967.463 373.742C966.363 375.406 965.252 376.928 964.147 378.283ZM975.664 364.082C976.419 365.998 977.055 367.851 977.561 369.613C975.923 370.029 974.155 370.364 972.292 370.613C972.889 369.56 973.467 368.493 974.026 367.414C974.594 366.317 975.14 365.206 975.664 364.082V364.082ZM971.936 366.072C971.08 367.726 970.176 369.35 969.226 370.939C967.55 371.072 965.818 371.141 964.053 371.141C962.295 371.141 960.586 371.08 958.939 370.961C957.964 369.375 957.043 367.75 956.178 366.087C955.318 364.433 954.514 362.743 953.769 361.021C954.512 359.298 955.313 357.607 956.171 355.952V355.952C957.029 354.297 957.942 352.678 958.91 351.099C960.59 350.958 962.312 350.884 964.053 350.884C965.802 350.884 967.527 350.958 969.206 351.101C970.164 352.677 971.072 354.29 971.928 355.938C972.788 357.589 973.601 359.272 974.363 360.982C973.608 362.71 972.799 364.408 971.936 366.072H971.936ZM976.913 336.078C978.805 337.292 979.541 342.188 978.352 348.61C978.274 349.028 978.19 349.445 978.098 349.86C975.755 349.258 973.21 348.81 970.546 348.532C968.994 346.072 967.385 343.835 965.771 341.899C966.194 341.445 966.627 341.002 967.07 340.572C971.24 336.533 975.138 334.938 976.913 336.078V336.078Z" fill="white"/>
<path d="M964.054 355.342C966.84 355.342 969.098 357.855 969.098 360.956C969.098 364.057 966.84 366.571 964.054 366.571C961.268 366.571 959.01 364.057 959.01 360.956C959.01 357.855 961.268 355.342 964.054 355.342" fill="#53C1DE"/>
</g>
<g filter="url(#filter1_d)">
<path d="M860.642 382.464C860.228 382.371 859.825 382.241 859.421 382.122L859.117 382.029C858.722 381.908 858.33 381.781 857.941 381.647L857.779 381.588C857.43 381.466 857.085 381.336 856.742 381.204L856.451 381.089C856.075 380.941 855.701 380.786 855.332 380.624L855.109 380.525C854.791 380.381 854.477 380.236 854.164 380.085L853.891 379.954C853.646 379.835 853.403 379.708 853.161 379.583C852.999 379.497 852.834 379.417 852.673 379.328C852.377 379.169 852.087 379.005 851.798 378.837L851.502 378.672C851.118 378.446 850.738 378.211 850.362 377.973L850.055 377.768C849.782 377.593 849.511 377.414 849.243 377.229L848.982 377.045C848.724 376.863 848.469 376.678 848.215 376.491L847.875 376.234C847.643 376.056 847.412 375.877 847.183 375.693L846.875 375.445C846.584 375.206 846.297 374.966 846.013 374.719L845.919 374.639C845.612 374.37 845.31 374.093 845.013 373.816L844.758 373.57C844.537 373.36 844.32 373.149 844.107 372.932L843.852 372.677C843.58 372.399 843.314 372.118 843.052 371.832L843.013 371.79C842.737 371.488 842.467 371.18 842.203 370.868L841.991 370.616C841.793 370.379 841.598 370.138 841.407 369.895L841.194 369.629C840.964 369.331 840.74 369.035 840.52 368.732C834.445 360.445 832.262 349.016 837.118 339.63L832.813 345.091C827.298 353.016 827.985 363.329 832.197 371.751C832.297 371.953 832.403 372.151 832.506 372.35L832.703 372.729L832.826 372.948L833.045 373.341C833.176 373.571 833.31 373.801 833.448 374.03L833.677 374.408C833.829 374.654 833.984 374.896 834.144 375.138L834.343 375.445C834.562 375.773 834.787 376.1 835.019 376.421L835.038 376.446L835.152 376.6C835.352 376.876 835.559 377.149 835.768 377.419L836 377.714C836.186 377.949 836.376 378.182 836.569 378.414L836.787 378.674C837.046 378.979 837.31 379.282 837.58 379.58L837.596 379.596L837.627 379.63C837.89 379.918 838.16 380.199 838.433 380.48L838.691 380.74C838.903 380.953 839.118 381.163 839.335 381.371L839.598 381.621C839.888 381.895 840.181 382.163 840.48 382.425L840.494 382.436L840.647 382.567C840.91 382.795 841.178 383.021 841.449 383.243L841.781 383.508C842.001 383.685 842.224 383.859 842.449 384.03L842.806 384.301C843.053 384.484 843.303 384.663 843.555 384.839L843.828 385.032L843.903 385.086C844.142 385.25 844.387 385.409 844.631 385.567L844.946 385.777C845.321 386.014 845.701 386.249 846.085 386.475L846.4 386.653C846.683 386.816 846.967 386.976 847.256 387.132C847.412 387.216 847.572 387.296 847.729 387.376C847.932 387.483 848.134 387.591 848.341 387.694L848.483 387.763L848.733 387.884C849.054 388.037 849.377 388.187 849.703 388.332L849.908 388.424C850.282 388.588 850.659 388.745 851.04 388.895L851.315 389.003C851.667 389.139 852.024 389.273 852.383 389.399L852.517 389.445C852.91 389.583 853.307 389.71 853.707 389.835L853.995 389.921C854.402 390.043 854.804 390.19 855.224 390.267C881.893 395.131 889.64 374.241 889.64 374.241C883.133 382.718 871.584 384.954 860.642 382.464V382.464ZM851.035 360.849C851.632 361.705 852.295 362.724 853.087 363.412C853.375 363.729 853.675 364.038 853.982 364.341L854.218 364.574C854.516 364.863 854.819 365.147 855.132 365.423L855.169 365.455L855.178 365.464C855.525 365.768 855.882 366.059 856.246 366.347L856.488 366.536C856.852 366.816 857.224 367.09 857.604 367.352L857.637 367.376C857.805 367.492 857.976 367.6 858.147 367.712L858.388 367.872C858.66 368.046 858.936 368.216 859.216 368.379L859.333 368.447C859.574 368.586 859.819 368.723 860.064 368.856L860.325 368.992C860.494 369.08 860.664 369.171 860.837 369.257L860.914 369.292C861.265 369.465 861.62 369.632 861.982 369.789L862.218 369.886C862.507 370.009 862.8 370.129 863.093 370.241L863.468 370.379C863.735 370.478 864.002 370.568 864.272 370.658L864.636 370.775C865.019 370.894 865.398 371.044 865.798 371.111C886.389 374.522 891.143 358.668 891.143 358.668C886.858 364.839 878.559 367.784 869.703 365.485C869.31 365.382 868.922 365.27 868.537 365.148L868.187 365.035C867.913 364.946 867.641 364.852 867.371 364.754L867.003 364.617C866.707 364.503 866.415 364.386 866.125 364.263L865.888 364.163C865.525 364.005 865.167 363.838 864.814 363.663C864.632 363.575 864.454 363.481 864.275 363.389L863.964 363.229C863.735 363.105 863.507 362.976 863.283 362.844L863.12 362.752C862.841 362.589 862.567 362.421 862.295 362.248L862.046 362.082C861.867 361.966 861.687 361.847 861.511 361.728C861.132 361.466 860.763 361.192 860.398 360.914L860.148 360.717C856.272 357.657 853.199 353.474 851.738 348.731C850.207 343.813 850.538 338.292 853.19 333.811L849.931 338.411C845.943 344.15 846.16 351.833 849.271 357.903C849.792 358.922 850.379 359.909 851.035 360.849V360.849ZM872.738 353.749C872.908 353.812 873.077 353.868 873.249 353.926L873.475 353.998C873.717 354.074 873.958 354.162 874.208 354.21C885.578 356.407 888.662 348.375 889.483 347.193C886.781 351.082 882.242 352.016 876.671 350.664C876.231 350.557 875.747 350.398 875.323 350.248C874.779 350.054 874.243 349.833 873.723 349.583C872.733 349.108 871.791 348.531 870.917 347.871C865.932 344.089 862.836 336.874 866.088 330.999L864.328 333.424C861.977 336.884 861.746 341.181 863.378 345.002C865.098 349.058 868.624 352.24 872.738 353.749V353.749Z" fill="#0868AC"/>
</g>
<g filter="url(#filter2_d)">
<path d="M779.094 365.751C776.857 365.767 774.919 366.484 773.294 367.552C772.694 365.968 772.094 364.583 771.994 363.549C771.881 362.349 771.744 361.615 771.881 360.18C772.019 358.746 772.644 356.711 772.644 356.545C772.631 356.394 772.506 355.661 771.219 355.644C769.931 355.627 768.818 355.978 768.693 356.428C768.568 356.878 768.318 357.912 768.156 358.98C767.931 360.547 765.581 366.101 764.243 369.019C763.805 367.885 763.43 366.885 763.355 366.084C763.243 364.883 763.105 364.149 763.243 362.715C763.38 361.281 764.005 359.246 764.005 359.08C763.993 358.929 763.868 358.196 762.58 358.179C761.293 358.162 760.18 358.513 760.055 358.963C759.93 359.413 759.793 360.48 759.518 361.514C759.255 362.549 756.13 371.821 755.317 374.239C754.905 375.474 754.542 376.458 754.28 377.125C754.017 377.792 754.267 377.175 754.242 377.241C754.017 377.808 753.892 378.125 753.892 378.125V378.142C753.717 378.559 753.53 378.959 753.442 378.959C753.379 378.959 753.254 377.842 753.467 376.308C753.929 373.089 755.055 368.069 755.042 367.885C755.042 367.802 755.255 366.918 754.317 366.468C753.404 366.018 753.079 366.768 753.004 366.768C752.929 366.768 752.867 367.035 752.867 367.035C752.867 367.035 753.879 361.381 750.929 361.381C749.079 361.381 746.529 364.066 745.266 366.518C744.466 367.102 742.766 368.336 740.966 369.653C740.278 370.154 739.566 370.687 738.891 371.171L738.753 370.971C735.178 365.884 728.565 362.282 728.84 355.444C728.94 352.959 729.59 346.405 741.541 338.466C751.329 331.962 759.168 333.746 760.53 337.716C762.468 343.386 756.342 353.926 746.167 355.444C742.291 356.028 740.253 354.026 739.741 353.276C739.203 352.492 739.128 352.459 738.928 352.609C738.603 352.842 738.803 353.543 738.928 353.96C739.228 355.01 740.479 356.878 742.604 357.812C744.466 358.629 749.017 359.08 754.517 356.244C760.68 353.059 765.493 344.22 764.081 336.832C762.643 329.31 753.292 326.842 744.454 331.028C739.191 333.53 733.49 337.432 729.39 342.552C724.515 348.623 723.739 353.926 724.064 356.128C725.202 363.983 733.315 369.103 736.566 372.889C736.403 373.005 736.253 373.122 736.116 373.222C734.49 374.289 728.302 378.609 726.752 383.178C725.002 388.349 727.027 392.068 728.377 392.568C732.553 394.119 736.828 391.334 739.141 386.748C741.441 382.161 741.166 376.207 740.103 373.489L740.066 373.389L741.341 372.388C742.166 371.738 742.979 371.137 743.691 370.62C743.291 372.071 743.003 373.789 742.854 376.291C742.679 379.226 743.579 383.028 744.766 384.529C745.291 385.18 745.916 385.196 746.304 385.196C747.679 385.196 748.304 383.679 748.992 381.861C749.842 379.643 750.592 377.075 750.592 377.075C750.592 377.075 749.654 384.029 752.217 384.029C753.155 384.029 754.092 382.411 754.517 381.577V381.594C754.517 381.594 754.542 381.544 754.592 381.427C754.645 381.324 754.695 381.218 754.742 381.111V381.077C755.117 380.21 755.955 378.225 757.205 374.94C758.817 370.704 760.368 365.4 760.368 365.4C760.368 365.4 760.518 366.701 760.98 368.836C761.255 370.104 761.855 371.488 762.318 372.839C761.943 373.539 761.718 373.939 761.718 373.939L761.73 373.956C761.43 374.49 761.093 375.057 760.743 375.624C759.468 377.659 757.942 379.977 757.742 380.644C757.505 381.428 757.555 382.011 758.017 382.479C758.355 382.812 758.955 382.879 759.593 382.812C760.743 382.712 761.543 382.328 761.943 382.095C762.568 381.795 763.28 381.344 763.968 380.677C765.218 379.443 765.981 377.692 765.906 375.357C765.868 374.073 765.556 372.806 765.168 371.605C765.281 371.388 765.393 371.171 765.506 370.938C767.481 367.085 769.006 362.849 769.006 362.849C769.006 362.849 769.156 364.15 769.618 366.285C769.856 367.369 770.331 368.553 770.756 369.72C768.906 371.738 767.743 374.073 767.343 375.608C766.606 378.443 767.181 379.727 768.268 380.027C768.756 380.161 769.456 379.86 769.981 379.56C770.631 379.277 771.418 378.793 772.144 378.076C773.394 376.842 774.594 375.124 774.531 372.806C774.494 371.738 774.281 370.688 773.994 369.687C775.569 368.82 777.607 368.319 780.194 368.736C785.757 369.604 786.857 374.24 786.645 376.175C786.433 378.109 785.27 379.177 784.882 379.51C784.495 379.827 784.37 379.944 784.407 380.177C784.457 380.528 784.632 380.511 784.97 380.444C785.432 380.344 787.895 378.86 787.995 375.291C788.145 370.704 784.882 365.701 779.094 365.751V365.751ZM736.191 385.047C734.353 387.732 731.765 388.749 730.665 387.882C729.477 386.964 729.94 383.012 732.203 380.16C733.578 378.426 735.365 376.825 736.541 375.841C736.803 375.624 737.203 375.307 737.678 374.923C737.753 374.857 737.803 374.823 737.803 374.823C737.891 374.756 737.991 374.673 738.091 374.59C738.928 378.659 738.128 382.228 736.191 385.047V385.047ZM749.629 372.855C748.992 374.94 747.642 380.293 746.829 379.993C746.129 379.743 745.704 375.69 746.691 371.688C747.191 369.67 748.254 367.268 748.879 366.334C749.892 364.833 750.992 364.333 751.267 364.95C751.592 365.751 750.029 371.554 749.629 372.855ZM760.718 379.927C760.443 380.11 760.193 380.243 760.08 380.144C759.993 380.077 760.192 379.827 760.192 379.827C760.192 379.827 761.58 377.842 762.13 376.925C762.443 376.391 762.818 375.774 763.218 375.074V375.274C763.218 377.675 761.493 379.276 760.718 379.927ZM769.268 377.325C769.068 377.125 769.093 376.508 769.768 374.573C770.031 373.806 770.631 372.522 771.668 371.304C771.794 371.805 771.869 372.288 771.856 372.739C771.844 375.74 770.243 376.858 769.268 377.325Z" fill="#CF649A"/>
</g>
<g clip-path="url(#clip0)" filter="url(#filter3_d)">
<path d="M1046.79 274.149L1018.85 246.207C1017.24 244.598 1014.63 244.598 1013.02 246.207L1007.22 252.01L1014.58 259.37C1016.29 258.792 1018.25 259.18 1019.62 260.544C1020.99 261.916 1021.37 263.894 1020.78 265.61L1027.87 272.704C1029.59 272.113 1031.57 272.495 1032.94 273.868C1034.85 275.783 1034.85 278.887 1032.94 280.803C1031.02 282.72 1027.92 282.72 1026 280.803C1024.56 279.361 1024.2 277.245 1024.93 275.469L1018.32 268.854L1018.32 286.263C1018.8 286.5 1019.24 286.813 1019.62 287.191C1021.53 289.106 1021.53 292.21 1019.62 294.127C1017.7 296.043 1014.59 296.043 1012.68 294.127C1010.76 292.21 1010.76 289.106 1012.68 287.191C1013.14 286.731 1013.68 286.368 1014.29 286.121V268.549C1013.68 268.304 1013.14 267.94 1012.68 267.479C1011.23 266.029 1010.88 263.9 1011.62 262.117L1004.37 254.861L985.207 274.019C983.597 275.63 983.597 278.24 985.207 279.85L1013.15 307.792C1014.76 309.401 1017.37 309.401 1018.98 307.792L1046.79 279.98C1048.4 278.37 1048.4 275.758 1046.79 274.149" fill="#DE4C36"/>
</g>
<g clip-path="url(#clip1)" filter="url(#filter4_d)">
<path fill-rule="evenodd" clip-rule="evenodd" d="M912 245C929.674 245 944 259.688 944 277.809C944 292.302 934.842 304.597 922.134 308.939C920.512 309.262 919.936 308.238 919.936 307.364C919.936 306.282 919.974 302.75 919.974 298.359C919.974 295.3 918.95 293.304 917.802 292.286C924.928 291.473 932.416 288.698 932.416 276.097C932.416 272.513 931.174 269.588 929.12 267.291C929.453 266.462 930.55 263.125 928.806 258.606C928.806 258.606 926.125 257.727 920.016 261.97C917.406 261.243 914.71 260.871 912 260.866C909.293 260.871 906.598 261.243 903.99 261.97C897.875 257.727 895.187 258.606 895.187 258.606C893.45 263.125 894.547 266.462 894.877 267.291C892.832 269.588 891.581 272.513 891.581 276.097C891.581 288.666 899.053 291.484 906.16 292.313C905.245 293.132 904.416 294.577 904.128 296.698C902.304 297.537 897.67 298.988 894.816 293.973C894.816 293.973 893.123 290.821 889.91 290.591C889.91 290.591 886.79 290.549 889.693 292.584C889.693 292.584 891.789 293.592 893.245 297.384C893.245 297.384 895.123 303.24 904.026 301.256C904.042 303.999 904.07 306.583 904.07 307.364C904.07 308.231 903.482 309.246 901.885 308.942C889.168 304.606 880 292.305 880 277.809C880 259.688 894.33 245 912 245" fill="black"/>
</g>
<g filter="url(#filter5_d)">
<path d="M798.784 285.173L782.919 297.477L776 294.048V261.979L782.893 258.523L798.647 270.854L823.59 246L840 252.506V303.385L823.673 310L798.784 285.173ZM823.101 289.502V266.499L808.168 278.015L823.101 289.502ZM783.467 285.363L791.316 278.259L783.467 270.467V285.363Z" fill="#0179CB"/>
</g>
<g filter="url(#filter6_d)">
<path d="M704 309C721.673 309 736 294.673 736 277C736 259.327 721.673 245 704 245C686.327 245 672 259.327 672 277C672 294.673 686.327 309 704 309Z" fill="#525967"/>
<path d="M698.223 291.933C699.607 291.933 700.934 291.433 701.912 290.542C702.89 289.651 703.44 288.443 703.44 287.183V282.339H698.223C696.84 282.339 695.513 282.84 694.535 283.731C693.557 284.622 693.007 285.83 693.007 287.09C693.007 288.35 693.557 289.558 694.535 290.449C695.513 291.34 696.84 291.841 698.223 291.841V291.933Z" fill="#0ACF83"/>
<path d="M692.88 277.712C692.897 277.088 693.05 276.473 693.328 275.903C693.607 275.333 694.006 274.818 694.503 274.388C695 273.959 695.585 273.622 696.225 273.399C696.865 273.175 697.546 273.068 698.232 273.085H703.312V282.339H698.232C697.546 282.356 696.865 282.249 696.225 282.025C695.585 281.802 695 281.465 694.503 281.036C694.006 280.606 693.607 280.091 693.328 279.521C693.05 278.951 692.897 278.336 692.88 277.712Z" fill="#A259FF"/>
<path d="M692.871 268.21C692.876 267.578 693.018 266.954 693.291 266.373C693.563 265.792 693.961 265.266 694.459 264.827C694.957 264.387 695.547 264.043 696.193 263.813C696.84 263.584 697.53 263.474 698.223 263.49H703.304V273.084H698.223C697.515 273.101 696.811 272.987 696.153 272.748C695.496 272.509 694.898 272.151 694.397 271.695C693.897 271.239 693.503 270.694 693.241 270.095C692.978 269.496 692.853 268.855 692.871 268.21Z" fill="#F24E1E"/>
<path d="M703.304 263.49H708.385C709.782 263.49 711.121 263.995 712.109 264.895C713.097 265.794 713.652 267.014 713.652 268.287C713.652 269.559 713.097 270.779 712.109 271.679C711.121 272.578 709.782 273.084 708.385 273.084H703.304V263.49Z" fill="#FF7262"/>
<path d="M713.737 277.712C713.764 278.651 713.484 279.576 712.933 280.371C712.382 281.165 711.585 281.793 710.643 282.174C709.7 282.556 708.655 282.675 707.638 282.516C706.621 282.356 705.679 281.926 704.931 281.279C704.183 280.632 703.663 279.798 703.435 278.882C703.207 277.965 703.283 277.008 703.653 276.131C704.023 275.254 704.67 274.496 705.512 273.954C706.354 273.412 707.354 273.109 708.386 273.085C709.071 273.068 709.753 273.175 710.392 273.399C711.032 273.622 711.617 273.959 712.114 274.388C712.611 274.818 713.01 275.333 713.289 275.903C713.567 276.473 713.72 277.088 713.737 277.712V277.712Z" fill="#1ABCFE"/>
</g>
<g filter="url(#filter7_d)">
<path d="M1040.39 176.167L1018.34 163.365C1016.95 162.573 1015.14 162.573 1013.73 163.365L991.451 176.167C990.016 176.993 989 178.544 989 180.204V205.775C989 207.434 990.042 208.986 991.477 209.816L997.365 213.16C1000.18 214.546 1001.17 214.546 1002.45 214.546C1006.62 214.546 1009 212.027 1009 207.632V182.387C1009 182.031 1008.81 181.5 1008.46 181.5H1005.65C1005.3 181.5 1004.5 182.031 1004.5 182.387V207.632C1004.5 209.58 1002.74 211.518 999.445 209.872L993.361 206.365C993.149 206.25 993 206.019 993 205.775V180.204C993 179.963 993.278 179.721 993.491 179.597L1015.7 166.817C1015.91 166.699 1016.22 166.699 1016.42 166.817L1038.36 179.594C1038.57 179.721 1038.5 179.955 1038.5 180.204V205.775C1038.5 206.019 1038.59 206.256 1038.38 206.374L1016.34 219.162C1016.15 219.275 1015.92 219.275 1015.71 219.162L1010.06 215.787C1009.89 215.688 1009.68 215.653 1009.52 215.744C1007.95 216.636 1007.66 216.754 1006.18 217.266C1005.82 217.392 1005.28 217.612 1006.39 218.23L1013.79 222.607C1014.49 223.017 1015.3 223.23 1016.11 223.23C1016.93 223.23 1017.73 223.017 1018.44 222.607L1040.38 209.816C1041.82 208.98 1042.5 207.434 1042.5 205.775V180.204C1042.5 178.544 1041.82 176.997 1040.39 176.167ZM1022.96 201.723C1017.09 201.723 1015.8 200.105 1015.37 197.19C1015.32 196.876 1015.05 196.5 1014.73 196.5H1011.87C1011.51 196.5 1011.23 196.93 1011.23 197.283C1011.23 201.016 1013.26 205.539 1022.96 205.539C1029.98 205.539 1034 202.812 1034 197.985C1034 193.199 1030.77 191.943 1023.96 191.042C1017.08 190.132 1016.38 189.673 1016.38 188.061C1016.38 186.732 1016.97 184.959 1022.07 184.959C1026.62 184.959 1028.3 185.936 1028.99 189.005C1029.05 189.293 1029.31 189.5 1029.61 189.5H1032.48C1032.66 189.5 1032.83 189.429 1032.95 189.302C1033.07 189.166 1033.14 188.996 1033.12 188.813C1032.68 183.529 1029.16 181.066 1022.06 181.066C1015.75 181.066 1011.98 183.733 1011.98 188.204C1011.98 193.053 1015.73 194.393 1021.79 194.992C1029.05 195.703 1029.61 196.763 1029.61 198.19C1029.61 200.667 1027.62 201.723 1022.96 201.723Z" fill="#83CD29"/>
</g>
<g filter="url(#filter8_d)">
<path d="M880 161H944V225H880V161Z" fill="#F7DF1E"/>
<path d="M896.828 214.483L901.726 211.519C902.671 213.194 903.53 214.612 905.592 214.612C907.568 214.612 908.814 213.839 908.814 210.832V190.382H914.829V210.917C914.829 217.146 911.177 219.981 905.85 219.981C901.038 219.981 898.246 217.49 896.828 214.482L896.828 214.483ZM918.095 213.838L922.992 211.003C924.282 213.108 925.957 214.655 928.921 214.655C931.413 214.655 933.002 213.409 933.002 211.69C933.002 209.628 931.37 208.898 928.62 207.695L927.117 207.05C922.778 205.204 919.9 202.884 919.9 197.986C919.9 193.475 923.336 190.038 928.707 190.038C932.53 190.038 935.28 191.37 937.256 194.85L932.573 197.857C931.541 196.01 930.425 195.28 928.706 195.28C926.945 195.28 925.828 196.397 925.828 197.857C925.828 199.662 926.945 200.392 929.522 201.509L931.026 202.154C936.138 204.345 939.017 206.579 939.017 211.605C939.017 217.018 934.764 219.982 929.05 219.982C923.465 219.982 919.856 217.319 918.095 213.839" fill="black"/>
</g>
<g clip-path="url(#clip2)" filter="url(#filter9_d)">
<path d="M840 161H776L781.647 218.263L808 225L834.353 218.263L840 161Z" fill="#0277BD"/>
<path d="M808 166.053V219.776L829.082 214.389L833.788 166.053H808Z" fill="#039BE5"/>
<path d="M825.133 174.474H808V181.21H817.22L816.663 187.947H808V194.684H816.279L815.721 202.263L808 204.618V211.698L822.867 207.316L824.192 187.947L825.133 174.474Z" fill="white"/>
<path d="M808 174.474V181.21H791.251L790.684 174.474H808ZM799.337 187.947L799.721 194.684H808V187.947H799.337ZM800.096 198.053H792.567L793.131 207.316L808 211.698V204.618L800.279 202.263L800.096 198.053Z" fill="#EEEEEE"/>
</g>
<g filter="url(#filter10_d)">
<path d="M680.875 218.5L675.75 161H732.125L727 218.5L703.875 225" fill="#E34F26"/>
<path d="M704 220L722.625 214.875L727 165.625H704" fill="#EF652A"/>
<path d="M704 187H694.625L694 179.75H704V172.75H686.25L688.125 194.125H704V187ZM703.875 205.375L696 203.25L695.5 197.625H688.5L689.375 208.75L703.875 212.75V205.375Z" fill="#EBEBEB"/>
<path d="M703.875 187V194.125H712.625L711.75 203.25L703.875 205.375V212.75L718.375 208.75L720.375 187H703.875ZM703.875 172.75V179.75H721L721.625 172.75H703.875Z" fill="white"/>
</g>
<g filter="url(#filter11_d)">
<path d="M204.27 235H200.068V212.904H192.51V209.301H211.828V212.904H204.27V235ZM232.447 235H228.299V223.047C228.299 221.547 227.994 220.428 227.385 219.689C226.787 218.951 225.832 218.582 224.52 218.582C222.785 218.582 221.508 219.104 220.688 220.146C219.879 221.178 219.475 222.912 219.475 225.35V235H215.344V207.648H219.475V214.592C219.475 215.705 219.404 216.895 219.264 218.16H219.527C220.09 217.223 220.869 216.496 221.865 215.98C222.873 215.465 224.045 215.207 225.381 215.207C230.092 215.207 232.447 217.58 232.447 222.326V235ZM246.686 235.352C243.662 235.352 241.295 234.473 239.584 232.715C237.885 230.945 237.035 228.514 237.035 225.42C237.035 222.244 237.826 219.748 239.408 217.932C240.99 216.115 243.164 215.207 245.93 215.207C248.496 215.207 250.523 215.986 252.012 217.545C253.5 219.104 254.244 221.248 254.244 223.979V226.211H241.289C241.348 228.098 241.857 229.551 242.818 230.57C243.779 231.578 245.133 232.082 246.879 232.082C248.027 232.082 249.094 231.977 250.078 231.766C251.074 231.543 252.141 231.18 253.277 230.676V234.033C252.27 234.514 251.25 234.854 250.219 235.053C249.188 235.252 248.01 235.352 246.686 235.352ZM245.93 218.336C244.617 218.336 243.562 218.752 242.766 219.584C241.98 220.416 241.512 221.629 241.359 223.223H250.184C250.16 221.617 249.773 220.404 249.023 219.584C248.273 218.752 247.242 218.336 245.93 218.336ZM271.998 229.463C271.998 231.361 271.307 232.82 269.924 233.84C268.541 234.848 266.561 235.352 263.982 235.352C261.393 235.352 259.312 234.959 257.742 234.174V230.605C260.027 231.66 262.154 232.188 264.123 232.188C266.666 232.188 267.938 231.42 267.938 229.885C267.938 229.393 267.797 228.982 267.516 228.654C267.234 228.326 266.771 227.986 266.127 227.635C265.482 227.283 264.586 226.885 263.438 226.439C261.199 225.572 259.682 224.705 258.885 223.838C258.1 222.971 257.707 221.846 257.707 220.463C257.707 218.799 258.375 217.51 259.711 216.596C261.059 215.67 262.887 215.207 265.195 215.207C267.48 215.207 269.643 215.67 271.682 216.596L270.346 219.707C268.248 218.84 266.484 218.406 265.055 218.406C262.875 218.406 261.785 219.027 261.785 220.27C261.785 220.879 262.066 221.395 262.629 221.816C263.203 222.238 264.445 222.818 266.355 223.557C267.961 224.178 269.127 224.746 269.854 225.262C270.58 225.777 271.119 226.375 271.471 227.055C271.822 227.723 271.998 228.525 271.998 229.463ZM284.971 235.352C281.947 235.352 279.58 234.473 277.869 232.715C276.17 230.945 275.32 228.514 275.32 225.42C275.32 222.244 276.111 219.748 277.693 217.932C279.275 216.115 281.449 215.207 284.215 215.207C286.781 215.207 288.809 215.986 290.297 217.545C291.785 219.104 292.529 221.248 292.529 223.979V226.211H279.574C279.633 228.098 280.143 229.551 281.104 230.57C282.064 231.578 283.418 232.082 285.164 232.082C286.312 232.082 287.379 231.977 288.363 231.766C289.359 231.543 290.426 231.18 291.562 230.676V234.033C290.555 234.514 289.535 234.854 288.504 235.053C287.473 235.252 286.295 235.352 284.971 235.352ZM284.215 218.336C282.902 218.336 281.848 218.752 281.051 219.584C280.266 220.416 279.797 221.629 279.645 223.223H288.469C288.445 221.617 288.059 220.404 287.309 219.584C286.559 218.752 285.527 218.336 284.215 218.336ZM318.738 235L317.912 232.293H317.771C316.834 233.477 315.891 234.285 314.941 234.719C313.992 235.141 312.773 235.352 311.285 235.352C309.375 235.352 307.881 234.836 306.803 233.805C305.736 232.773 305.203 231.314 305.203 229.428C305.203 227.424 305.947 225.912 307.436 224.893C308.924 223.873 311.191 223.316 314.238 223.223L317.596 223.117V222.08C317.596 220.838 317.303 219.912 316.717 219.303C316.143 218.682 315.246 218.371 314.027 218.371C313.031 218.371 312.076 218.518 311.162 218.811C310.248 219.104 309.369 219.449 308.525 219.848L307.189 216.895C308.244 216.344 309.398 215.928 310.652 215.646C311.906 215.354 313.09 215.207 314.203 215.207C316.676 215.207 318.539 215.746 319.793 216.824C321.059 217.902 321.691 219.596 321.691 221.904V235H318.738ZM312.586 232.188C314.086 232.188 315.287 231.771 316.189 230.939C317.104 230.096 317.561 228.918 317.561 227.406V225.719L315.064 225.824C313.119 225.895 311.701 226.223 310.811 226.809C309.932 227.383 309.492 228.268 309.492 229.463C309.492 230.33 309.75 231.004 310.266 231.484C310.781 231.953 311.555 232.188 312.586 232.188ZM337.318 215.207C338.15 215.207 338.836 215.266 339.375 215.383L338.971 219.232C338.385 219.092 337.775 219.021 337.143 219.021C335.49 219.021 334.148 219.561 333.117 220.639C332.098 221.717 331.588 223.117 331.588 224.84V235H327.457V215.559H330.691L331.236 218.986H331.447C332.092 217.826 332.93 216.906 333.961 216.227C335.004 215.547 336.123 215.207 337.318 215.207ZM351.486 235.352C348.463 235.352 346.096 234.473 344.385 232.715C342.686 230.945 341.836 228.514 341.836 225.42C341.836 222.244 342.627 219.748 344.209 217.932C345.791 216.115 347.965 215.207 350.73 215.207C353.297 215.207 355.324 215.986 356.812 217.545C358.301 219.104 359.045 221.248 359.045 223.979V226.211H346.09C346.148 228.098 346.658 229.551 347.619 230.57C348.58 231.578 349.934 232.082 351.68 232.082C352.828 232.082 353.895 231.977 354.879 231.766C355.875 231.543 356.941 231.18 358.078 230.676V234.033C357.07 234.514 356.051 234.854 355.02 235.053C353.988 235.252 352.811 235.352 351.486 235.352ZM350.73 218.336C349.418 218.336 348.363 218.752 347.566 219.584C346.781 220.416 346.312 221.629 346.16 223.223H354.984C354.961 221.617 354.574 220.404 353.824 219.584C353.074 218.752 352.043 218.336 350.73 218.336ZM386.15 229.463C386.15 231.361 385.459 232.82 384.076 233.84C382.693 234.848 380.713 235.352 378.135 235.352C375.545 235.352 373.465 234.959 371.895 234.174V230.605C374.18 231.66 376.307 232.188 378.275 232.188C380.818 232.188 382.09 231.42 382.09 229.885C382.09 229.393 381.949 228.982 381.668 228.654C381.387 228.326 380.924 227.986 380.279 227.635C379.635 227.283 378.738 226.885 377.59 226.439C375.352 225.572 373.834 224.705 373.037 223.838C372.252 222.971 371.859 221.846 371.859 220.463C371.859 218.799 372.527 217.51 373.863 216.596C375.211 215.67 377.039 215.207 379.348 215.207C381.633 215.207 383.795 215.67 385.834 216.596L384.498 219.707C382.4 218.84 380.637 218.406 379.207 218.406C377.027 218.406 375.938 219.027 375.938 220.27C375.938 220.879 376.219 221.395 376.781 221.816C377.355 222.238 378.598 222.818 380.508 223.557C382.113 224.178 383.279 224.746 384.006 225.262C384.732 225.777 385.271 226.375 385.623 227.055C385.975 227.723 386.15 228.525 386.15 229.463ZM407.877 225.244C407.877 228.42 407.062 230.898 405.434 232.68C403.805 234.461 401.537 235.352 398.631 235.352C396.814 235.352 395.209 234.941 393.814 234.121C392.42 233.301 391.348 232.123 390.598 230.588C389.848 229.053 389.473 227.271 389.473 225.244C389.473 222.092 390.281 219.631 391.898 217.861C393.516 216.092 395.795 215.207 398.736 215.207C401.549 215.207 403.775 216.115 405.416 217.932C407.057 219.736 407.877 222.174 407.877 225.244ZM393.727 225.244C393.727 229.732 395.385 231.977 398.701 231.977C401.982 231.977 403.623 229.732 403.623 225.244C403.623 220.803 401.971 218.582 398.666 218.582C396.932 218.582 395.672 219.156 394.887 220.305C394.113 221.453 393.727 223.1 393.727 225.244ZM429.023 235H424.875V223.012C424.875 221.523 424.594 220.416 424.031 219.689C423.469 218.951 422.59 218.582 421.395 218.582C419.801 218.582 418.629 219.104 417.879 220.146C417.141 221.178 416.771 222.9 416.771 225.314V235H412.641V215.559H415.875L416.455 218.107H416.666C417.205 217.182 417.984 216.467 419.004 215.963C420.035 215.459 421.166 215.207 422.396 215.207C425.385 215.207 427.365 216.227 428.338 218.266H428.619C429.193 217.305 430.002 216.555 431.045 216.016C432.088 215.477 433.283 215.207 434.631 215.207C436.951 215.207 438.639 215.793 439.693 216.965C440.76 218.137 441.293 219.924 441.293 222.326V235H437.162V223.012C437.162 221.523 436.875 220.416 436.301 219.689C435.738 218.951 434.859 218.582 433.664 218.582C432.059 218.582 430.881 219.086 430.131 220.094C429.393 221.09 429.023 222.625 429.023 224.699V235ZM455.549 235.352C452.525 235.352 450.158 234.473 448.447 232.715C446.748 230.945 445.898 228.514 445.898 225.42C445.898 222.244 446.689 219.748 448.271 217.932C449.854 216.115 452.027 215.207 454.793 215.207C457.359 215.207 459.387 215.986 460.875 217.545C462.363 219.104 463.107 221.248 463.107 223.979V226.211H450.152C450.211 228.098 450.721 229.551 451.682 230.57C452.643 231.578 453.996 232.082 455.742 232.082C456.891 232.082 457.957 231.977 458.941 231.766C459.938 231.543 461.004 231.18 462.141 230.676V234.033C461.133 234.514 460.113 234.854 459.082 235.053C458.051 235.252 456.873 235.352 455.549 235.352ZM454.793 218.336C453.48 218.336 452.426 218.752 451.629 219.584C450.844 220.416 450.375 221.629 450.223 223.223H459.047C459.023 221.617 458.637 220.404 457.887 219.584C457.137 218.752 456.105 218.336 454.793 218.336ZM484.395 232.012C485.402 232.012 486.41 231.854 487.418 231.537V234.648C486.961 234.848 486.369 235.012 485.643 235.141C484.928 235.281 484.184 235.352 483.41 235.352C479.496 235.352 477.539 233.289 477.539 229.164V218.688H474.885V216.859L477.732 215.348L479.139 211.234H481.688V215.559H487.225V218.688H481.688V229.094C481.688 230.09 481.934 230.828 482.426 231.309C482.93 231.777 483.586 232.012 484.395 232.012ZM508.564 225.244C508.564 228.42 507.75 230.898 506.121 232.68C504.492 234.461 502.225 235.352 499.318 235.352C497.502 235.352 495.896 234.941 494.502 234.121C493.107 233.301 492.035 232.123 491.285 230.588C490.535 229.053 490.16 227.271 490.16 225.244C490.16 222.092 490.969 219.631 492.586 217.861C494.203 216.092 496.482 215.207 499.424 215.207C502.236 215.207 504.463 216.115 506.104 217.932C507.744 219.736 508.564 222.174 508.564 225.244ZM494.414 225.244C494.414 229.732 496.072 231.977 499.389 231.977C502.67 231.977 504.311 229.732 504.311 225.244C504.311 220.803 502.658 218.582 499.354 218.582C497.619 218.582 496.359 219.156 495.574 220.305C494.801 221.453 494.414 223.1 494.414 225.244ZM530.572 225.244C530.572 228.42 529.758 230.898 528.129 232.68C526.5 234.461 524.232 235.352 521.326 235.352C519.51 235.352 517.904 234.941 516.51 234.121C515.115 233.301 514.043 232.123 513.293 230.588C512.543 229.053 512.168 227.271 512.168 225.244C512.168 222.092 512.977 219.631 514.594 217.861C516.211 216.092 518.49 215.207 521.432 215.207C524.244 215.207 526.471 216.115 528.111 217.932C529.752 219.736 530.572 222.174 530.572 225.244ZM516.422 225.244C516.422 229.732 518.08 231.977 521.396 231.977C524.678 231.977 526.318 229.732 526.318 225.244C526.318 220.803 524.666 218.582 521.361 218.582C519.627 218.582 518.367 219.156 517.582 220.305C516.809 221.453 516.422 223.1 516.422 225.244ZM539.467 235H535.336V207.648H539.467V235ZM558.451 229.463C558.451 231.361 557.76 232.82 556.377 233.84C554.994 234.848 553.014 235.352 550.436 235.352C547.846 235.352 545.766 234.959 544.195 234.174V230.605C546.48 231.66 548.607 232.188 550.576 232.188C553.119 232.188 554.391 231.42 554.391 229.885C554.391 229.393 554.25 228.982 553.969 228.654C553.688 228.326 553.225 227.986 552.58 227.635C551.936 227.283 551.039 226.885 549.891 226.439C547.652 225.572 546.135 224.705 545.338 223.838C544.553 222.971 544.16 221.846 544.16 220.463C544.16 218.799 544.828 217.51 546.164 216.596C547.512 215.67 549.34 215.207 551.648 215.207C553.934 215.207 556.096 215.67 558.135 216.596L556.799 219.707C554.701 218.84 552.938 218.406 551.508 218.406C549.328 218.406 548.238 219.027 548.238 220.27C548.238 220.879 548.52 221.395 549.082 221.816C549.656 222.238 550.898 222.818 552.809 223.557C554.414 224.178 555.58 224.746 556.307 225.262C557.033 225.777 557.572 226.375 557.924 227.055C558.275 227.723 558.451 228.525 558.451 229.463ZM207.117 291L206.291 288.293H206.15C205.213 289.477 204.27 290.285 203.32 290.719C202.371 291.141 201.152 291.352 199.664 291.352C197.754 291.352 196.26 290.836 195.182 289.805C194.115 288.773 193.582 287.314 193.582 285.428C193.582 283.424 194.326 281.912 195.814 280.893C197.303 279.873 199.57 279.316 202.617 279.223L205.975 279.117V278.08C205.975 276.838 205.682 275.912 205.096 275.303C204.521 274.682 203.625 274.371 202.406 274.371C201.41 274.371 200.455 274.518 199.541 274.811C198.627 275.104 197.748 275.449 196.904 275.848L195.568 272.895C196.623 272.344 197.777 271.928 199.031 271.646C200.285 271.354 201.469 271.207 202.582 271.207C205.055 271.207 206.918 271.746 208.172 272.824C209.438 273.902 210.07 275.596 210.07 277.904V291H207.117ZM200.965 288.188C202.465 288.188 203.666 287.771 204.568 286.939C205.482 286.096 205.939 284.918 205.939 283.406V281.719L203.443 281.824C201.498 281.895 200.08 282.223 199.189 282.809C198.311 283.383 197.871 284.268 197.871 285.463C197.871 286.33 198.129 287.004 198.645 287.484C199.16 287.953 199.934 288.188 200.965 288.188ZM232.939 291H228.791V279.047C228.791 277.547 228.486 276.428 227.877 275.689C227.279 274.951 226.324 274.582 225.012 274.582C223.266 274.582 221.988 275.098 221.18 276.129C220.371 277.16 219.967 278.889 219.967 281.314V291H215.836V271.559H219.07L219.65 274.107H219.861C220.447 273.182 221.279 272.467 222.357 271.963C223.436 271.459 224.631 271.207 225.943 271.207C230.607 271.207 232.939 273.58 232.939 278.326V291ZM245.244 291.352C242.818 291.352 240.926 290.473 239.566 288.715C238.207 286.957 237.527 284.49 237.527 281.314C237.527 278.127 238.213 275.648 239.584 273.879C240.967 272.098 242.877 271.207 245.314 271.207C247.869 271.207 249.814 272.15 251.15 274.037H251.361C251.162 272.643 251.062 271.541 251.062 270.732V263.648H255.211V291H251.977L251.256 288.451H251.062C249.738 290.385 247.799 291.352 245.244 291.352ZM246.352 288.012C248.051 288.012 249.287 287.537 250.061 286.588C250.834 285.627 251.232 284.074 251.256 281.93V281.35C251.256 278.9 250.857 277.16 250.061 276.129C249.264 275.098 248.016 274.582 246.316 274.582C244.863 274.582 243.744 275.174 242.959 276.357C242.174 277.529 241.781 279.205 241.781 281.385C241.781 283.541 242.162 285.188 242.924 286.324C243.686 287.449 244.828 288.012 246.352 288.012ZM283.529 285.463C283.529 287.361 282.838 288.82 281.455 289.84C280.072 290.848 278.092 291.352 275.514 291.352C272.924 291.352 270.844 290.959 269.273 290.174V286.605C271.559 287.66 273.686 288.188 275.654 288.188C278.197 288.188 279.469 287.42 279.469 285.885C279.469 285.393 279.328 284.982 279.047 284.654C278.766 284.326 278.303 283.986 277.658 283.635C277.014 283.283 276.117 282.885 274.969 282.439C272.73 281.572 271.213 280.705 270.416 279.838C269.631 278.971 269.238 277.846 269.238 276.463C269.238 274.799 269.906 273.51 271.242 272.596C272.59 271.67 274.418 271.207 276.727 271.207C279.012 271.207 281.174 271.67 283.213 272.596L281.877 275.707C279.779 274.84 278.016 274.406 276.586 274.406C274.406 274.406 273.316 275.027 273.316 276.27C273.316 276.879 273.598 277.395 274.16 277.816C274.734 278.238 275.977 278.818 277.887 279.557C279.492 280.178 280.658 280.746 281.385 281.262C282.111 281.777 282.65 282.375 283.002 283.055C283.354 283.723 283.529 284.525 283.529 285.463ZM305.256 281.244C305.256 284.42 304.441 286.898 302.812 288.68C301.184 290.461 298.916 291.352 296.01 291.352C294.193 291.352 292.588 290.941 291.193 290.121C289.799 289.301 288.727 288.123 287.977 286.588C287.227 285.053 286.852 283.271 286.852 281.244C286.852 278.092 287.66 275.631 289.277 273.861C290.895 272.092 293.174 271.207 296.115 271.207C298.928 271.207 301.154 272.115 302.795 273.932C304.436 275.736 305.256 278.174 305.256 281.244ZM291.105 281.244C291.105 285.732 292.764 287.977 296.08 287.977C299.361 287.977 301.002 285.732 301.002 281.244C301.002 276.803 299.35 274.582 296.045 274.582C294.311 274.582 293.051 275.156 292.266 276.305C291.492 277.453 291.105 279.1 291.105 281.244ZM319.775 274.688H315.029V291H310.881V274.688H307.682V272.754L310.881 271.488V270.223C310.881 267.926 311.42 266.227 312.498 265.125C313.576 264.012 315.223 263.455 317.438 263.455C318.891 263.455 320.32 263.695 321.727 264.176L320.637 267.305C319.617 266.977 318.645 266.812 317.719 266.812C316.781 266.812 316.096 267.105 315.662 267.691C315.24 268.266 315.029 269.133 315.029 270.293V271.559H319.775V274.688ZM330.34 288.012C331.348 288.012 332.355 287.854 333.363 287.537V290.648C332.906 290.848 332.314 291.012 331.588 291.141C330.873 291.281 330.129 291.352 329.355 291.352C325.441 291.352 323.484 289.289 323.484 285.164V274.688H320.83V272.859L323.678 271.348L325.084 267.234H327.633V271.559H333.17V274.688H327.633V285.094C327.633 286.09 327.879 286.828 328.371 287.309C328.875 287.777 329.531 288.012 330.34 288.012ZM353.209 291L350.695 281.93C350.391 280.969 349.84 278.736 349.043 275.232H348.885C348.205 278.396 347.666 280.641 347.268 281.965L344.684 291H340.113L334.664 271.559H338.883L341.361 281.139C341.924 283.506 342.322 285.533 342.557 287.221H342.662C342.779 286.365 342.955 285.387 343.189 284.285C343.436 283.172 343.646 282.34 343.822 281.789L346.775 271.559H351.311L354.176 281.789C354.352 282.363 354.568 283.242 354.826 284.426C355.096 285.609 355.254 286.529 355.301 287.186H355.441C355.617 285.744 356.027 283.729 356.672 281.139L359.186 271.559H363.334L357.85 291H353.209ZM378.855 291L378.029 288.293H377.889C376.951 289.477 376.008 290.285 375.059 290.719C374.109 291.141 372.891 291.352 371.402 291.352C369.492 291.352 367.998 290.836 366.92 289.805C365.854 288.773 365.32 287.314 365.32 285.428C365.32 283.424 366.064 281.912 367.553 280.893C369.041 279.873 371.309 279.316 374.355 279.223L377.713 279.117V278.08C377.713 276.838 377.42 275.912 376.834 275.303C376.26 274.682 375.363 274.371 374.145 274.371C373.148 274.371 372.193 274.518 371.279 274.811C370.365 275.104 369.486 275.449 368.643 275.848L367.307 272.895C368.361 272.344 369.516 271.928 370.77 271.646C372.023 271.354 373.207 271.207 374.32 271.207C376.793 271.207 378.656 271.746 379.91 272.824C381.176 273.902 381.809 275.596 381.809 277.904V291H378.855ZM372.703 288.188C374.203 288.188 375.404 287.771 376.307 286.939C377.221 286.096 377.678 284.918 377.678 283.406V281.719L375.182 281.824C373.236 281.895 371.818 282.223 370.928 282.809C370.049 283.383 369.609 284.268 369.609 285.463C369.609 286.33 369.867 287.004 370.383 287.484C370.898 287.953 371.672 288.188 372.703 288.188ZM397.436 271.207C398.268 271.207 398.953 271.266 399.492 271.383L399.088 275.232C398.502 275.092 397.893 275.021 397.26 275.021C395.607 275.021 394.266 275.561 393.234 276.639C392.215 277.717 391.705 279.117 391.705 280.84V291H387.574V271.559H390.809L391.354 274.986H391.564C392.209 273.826 393.047 272.906 394.078 272.227C395.121 271.547 396.24 271.207 397.436 271.207ZM411.604 291.352C408.58 291.352 406.213 290.473 404.502 288.715C402.803 286.945 401.953 284.514 401.953 281.42C401.953 278.244 402.744 275.748 404.326 273.932C405.908 272.115 408.082 271.207 410.848 271.207C413.414 271.207 415.441 271.986 416.93 273.545C418.418 275.104 419.162 277.248 419.162 279.979V282.211H406.207C406.266 284.098 406.775 285.551 407.736 286.57C408.697 287.578 410.051 288.082 411.797 288.082C412.945 288.082 414.012 287.977 414.996 287.766C415.992 287.543 417.059 287.18 418.195 286.676V290.033C417.188 290.514 416.168 290.854 415.137 291.053C414.105 291.252 412.928 291.352 411.604 291.352ZM410.848 274.336C409.535 274.336 408.48 274.752 407.684 275.584C406.898 276.416 406.43 277.629 406.277 279.223H415.102C415.078 277.617 414.691 276.404 413.941 275.584C413.191 274.752 412.16 274.336 410.848 274.336ZM436.916 285.463C436.916 287.361 436.225 288.82 434.842 289.84C433.459 290.848 431.479 291.352 428.9 291.352C426.311 291.352 424.23 290.959 422.66 290.174V286.605C424.945 287.66 427.072 288.188 429.041 288.188C431.584 288.188 432.855 287.42 432.855 285.885C432.855 285.393 432.715 284.982 432.434 284.654C432.152 284.326 431.689 283.986 431.045 283.635C430.4 283.283 429.504 282.885 428.355 282.439C426.117 281.572 424.6 280.705 423.803 279.838C423.018 278.971 422.625 277.846 422.625 276.463C422.625 274.799 423.293 273.51 424.629 272.596C425.977 271.67 427.805 271.207 430.113 271.207C432.398 271.207 434.561 271.67 436.6 272.596L435.264 275.707C433.166 274.84 431.402 274.406 429.973 274.406C427.793 274.406 426.703 275.027 426.703 276.27C426.703 276.879 426.984 277.395 427.547 277.816C428.121 278.238 429.363 278.818 431.273 279.557C432.879 280.178 434.045 280.746 434.771 281.262C435.498 281.777 436.037 282.375 436.389 283.055C436.74 283.723 436.916 284.525 436.916 285.463ZM457.992 288.012C459 288.012 460.008 287.854 461.016 287.537V290.648C460.559 290.848 459.967 291.012 459.24 291.141C458.525 291.281 457.781 291.352 457.008 291.352C453.094 291.352 451.137 289.289 451.137 285.164V274.688H448.482V272.859L451.33 271.348L452.736 267.234H455.285V271.559H460.822V274.688H455.285V285.094C455.285 286.09 455.531 286.828 456.023 287.309C456.527 287.777 457.184 288.012 457.992 288.012ZM482.021 291H477.873V279.047C477.873 277.547 477.568 276.428 476.959 275.689C476.361 274.951 475.406 274.582 474.094 274.582C472.359 274.582 471.082 275.104 470.262 276.146C469.453 277.178 469.049 278.912 469.049 281.35V291H464.918V263.648H469.049V270.592C469.049 271.705 468.979 272.895 468.838 274.16H469.102C469.664 273.223 470.443 272.496 471.439 271.98C472.447 271.465 473.619 271.207 474.955 271.207C479.666 271.207 482.021 273.58 482.021 278.326V291ZM499.934 291L499.107 288.293H498.967C498.029 289.477 497.086 290.285 496.137 290.719C495.188 291.141 493.969 291.352 492.48 291.352C490.57 291.352 489.076 290.836 487.998 289.805C486.932 288.773 486.398 287.314 486.398 285.428C486.398 283.424 487.143 281.912 488.631 280.893C490.119 279.873 492.387 279.316 495.434 279.223L498.791 279.117V278.08C498.791 276.838 498.498 275.912 497.912 275.303C497.338 274.682 496.441 274.371 495.223 274.371C494.227 274.371 493.271 274.518 492.357 274.811C491.443 275.104 490.564 275.449 489.721 275.848L488.385 272.895C489.439 272.344 490.594 271.928 491.848 271.646C493.102 271.354 494.285 271.207 495.398 271.207C497.871 271.207 499.734 271.746 500.988 272.824C502.254 273.902 502.887 275.596 502.887 277.904V291H499.934ZM493.781 288.188C495.281 288.188 496.482 287.771 497.385 286.939C498.299 286.096 498.756 284.918 498.756 283.406V281.719L496.26 281.824C494.314 281.895 492.896 282.223 492.006 282.809C491.127 283.383 490.688 284.268 490.688 285.463C490.688 286.33 490.945 287.004 491.461 287.484C491.977 287.953 492.75 288.188 493.781 288.188ZM515.895 288.012C516.902 288.012 517.91 287.854 518.918 287.537V290.648C518.461 290.848 517.869 291.012 517.143 291.141C516.428 291.281 515.684 291.352 514.91 291.352C510.996 291.352 509.039 289.289 509.039 285.164V274.688H506.385V272.859L509.232 271.348L510.639 267.234H513.188V271.559H518.725V274.688H513.188V285.094C513.188 286.09 513.434 286.828 513.926 287.309C514.43 287.777 515.086 288.012 515.895 288.012ZM199.084 347H194.953V327.559H199.084V347ZM194.707 322.408C194.707 321.67 194.906 321.102 195.305 320.703C195.715 320.305 196.295 320.105 197.045 320.105C197.771 320.105 198.334 320.305 198.732 320.703C199.143 321.102 199.348 321.67 199.348 322.408C199.348 323.111 199.143 323.668 198.732 324.078C198.334 324.477 197.771 324.676 197.045 324.676C196.295 324.676 195.715 324.477 195.305 324.078C194.906 323.668 194.707 323.111 194.707 322.408ZM208.312 321.301L208.576 321.688C207.955 324.137 206.924 326.943 205.482 330.107H202.494C203.303 326.721 203.889 323.785 204.252 321.301H208.312ZM228.352 347H224.203V335.012C224.203 333.523 223.922 332.416 223.359 331.689C222.797 330.951 221.918 330.582 220.723 330.582C219.129 330.582 217.957 331.104 217.207 332.146C216.469 333.178 216.1 334.9 216.1 337.314V347H211.969V327.559H215.203L215.783 330.107H215.994C216.533 329.182 217.312 328.467 218.332 327.963C219.363 327.459 220.494 327.207 221.725 327.207C224.713 327.207 226.693 328.227 227.666 330.266H227.947C228.521 329.305 229.33 328.555 230.373 328.016C231.416 327.477 232.611 327.207 233.959 327.207C236.279 327.207 237.967 327.793 239.021 328.965C240.088 330.137 240.621 331.924 240.621 334.326V347H236.49V335.012C236.49 333.523 236.203 332.416 235.629 331.689C235.066 330.951 234.188 330.582 232.992 330.582C231.387 330.582 230.209 331.086 229.459 332.094C228.721 333.09 228.352 334.625 228.352 336.699V347ZM272.156 327.559V329.826L268.834 330.441C269.139 330.852 269.391 331.355 269.59 331.953C269.789 332.551 269.889 333.184 269.889 333.852C269.889 335.855 269.197 337.432 267.814 338.58C266.432 339.729 264.527 340.303 262.102 340.303C261.48 340.303 260.918 340.256 260.414 340.162C259.523 340.713 259.078 341.357 259.078 342.096C259.078 342.541 259.283 342.875 259.693 343.098C260.115 343.32 260.883 343.432 261.996 343.432H265.389C267.533 343.432 269.162 343.889 270.275 344.803C271.389 345.717 271.945 347.035 271.945 348.758C271.945 350.961 271.037 352.66 269.221 353.855C267.404 355.051 264.779 355.648 261.346 355.648C258.697 355.648 256.676 355.18 255.281 354.242C253.887 353.305 253.189 351.969 253.189 350.234C253.189 349.039 253.564 348.031 254.314 347.211C255.076 346.402 256.137 345.84 257.496 345.523C256.945 345.289 256.488 344.914 256.125 344.398C255.773 343.871 255.598 343.32 255.598 342.746C255.598 342.02 255.803 341.404 256.213 340.9C256.623 340.396 257.232 339.898 258.041 339.406C257.033 338.973 256.213 338.27 255.58 337.297C254.959 336.312 254.648 335.164 254.648 333.852C254.648 331.742 255.311 330.107 256.635 328.947C257.971 327.787 259.869 327.207 262.33 327.207C262.881 327.207 263.455 327.248 264.053 327.33C264.662 327.4 265.119 327.477 265.424 327.559H272.156ZM256.881 350.023C256.881 350.914 257.279 351.6 258.076 352.08C258.885 352.561 260.016 352.801 261.469 352.801C263.719 352.801 265.395 352.479 266.496 351.834C267.598 351.189 268.148 350.334 268.148 349.268C268.148 348.424 267.844 347.82 267.234 347.457C266.637 347.105 265.518 346.93 263.877 346.93H260.748C259.564 346.93 258.621 347.205 257.918 347.756C257.227 348.318 256.881 349.074 256.881 350.023ZM258.656 333.852C258.656 335.07 258.967 336.008 259.588 336.664C260.221 337.32 261.123 337.648 262.295 337.648C264.686 337.648 265.881 336.371 265.881 333.816C265.881 332.551 265.582 331.578 264.984 330.898C264.398 330.207 263.502 329.861 262.295 329.861C261.1 329.861 260.191 330.201 259.57 330.881C258.961 331.561 258.656 332.551 258.656 333.852ZM293.021 337.244C293.021 340.42 292.207 342.898 290.578 344.68C288.949 346.461 286.682 347.352 283.775 347.352C281.959 347.352 280.354 346.941 278.959 346.121C277.564 345.301 276.492 344.123 275.742 342.588C274.992 341.053 274.617 339.271 274.617 337.244C274.617 334.092 275.426 331.631 277.043 329.861C278.66 328.092 280.939 327.207 283.881 327.207C286.693 327.207 288.92 328.115 290.561 329.932C292.201 331.736 293.021 334.174 293.021 337.244ZM278.871 337.244C278.871 341.732 280.529 343.977 283.846 343.977C287.127 343.977 288.768 341.732 288.768 337.244C288.768 332.803 287.115 330.582 283.811 330.582C282.076 330.582 280.816 331.156 280.031 332.305C279.258 333.453 278.871 335.1 278.871 337.244ZM315.029 337.244C315.029 340.42 314.215 342.898 312.586 344.68C310.957 346.461 308.689 347.352 305.783 347.352C303.967 347.352 302.361 346.941 300.967 346.121C299.572 345.301 298.5 344.123 297.75 342.588C297 341.053 296.625 339.271 296.625 337.244C296.625 334.092 297.434 331.631 299.051 329.861C300.668 328.092 302.947 327.207 305.889 327.207C308.701 327.207 310.928 328.115 312.568 329.932C314.209 331.736 315.029 334.174 315.029 337.244ZM300.879 337.244C300.879 341.732 302.537 343.977 305.854 343.977C309.135 343.977 310.775 341.732 310.775 337.244C310.775 332.803 309.123 330.582 305.818 330.582C304.084 330.582 302.824 331.156 302.039 332.305C301.266 333.453 300.879 335.1 300.879 337.244ZM326.35 347.352C323.924 347.352 322.031 346.473 320.672 344.715C319.312 342.957 318.633 340.49 318.633 337.314C318.633 334.127 319.318 331.648 320.689 329.879C322.072 328.098 323.982 327.207 326.42 327.207C328.975 327.207 330.92 328.15 332.256 330.037H332.467C332.268 328.643 332.168 327.541 332.168 326.732V319.648H336.316V347H333.082L332.361 344.451H332.168C330.844 346.385 328.904 347.352 326.35 347.352ZM327.457 344.012C329.156 344.012 330.393 343.537 331.166 342.588C331.939 341.627 332.338 340.074 332.361 337.93V337.35C332.361 334.9 331.963 333.16 331.166 332.129C330.369 331.098 329.121 330.582 327.422 330.582C325.969 330.582 324.85 331.174 324.064 332.357C323.279 333.529 322.887 335.205 322.887 337.385C322.887 339.541 323.268 341.188 324.029 342.324C324.791 343.449 325.934 344.012 327.457 344.012ZM363.738 347L362.912 344.293H362.771C361.834 345.477 360.891 346.285 359.941 346.719C358.992 347.141 357.773 347.352 356.285 347.352C354.375 347.352 352.881 346.836 351.803 345.805C350.736 344.773 350.203 343.314 350.203 341.428C350.203 339.424 350.947 337.912 352.436 336.893C353.924 335.873 356.191 335.316 359.238 335.223L362.596 335.117V334.08C362.596 332.838 362.303 331.912 361.717 331.303C361.143 330.682 360.246 330.371 359.027 330.371C358.031 330.371 357.076 330.518 356.162 330.811C355.248 331.104 354.369 331.449 353.525 331.848L352.189 328.895C353.244 328.344 354.398 327.928 355.652 327.646C356.906 327.354 358.09 327.207 359.203 327.207C361.676 327.207 363.539 327.746 364.793 328.824C366.059 329.902 366.691 331.596 366.691 333.904V347H363.738ZM357.586 344.188C359.086 344.188 360.287 343.771 361.189 342.939C362.104 342.096 362.561 340.918 362.561 339.406V337.719L360.064 337.824C358.119 337.895 356.701 338.223 355.811 338.809C354.932 339.383 354.492 340.268 354.492 341.463C354.492 342.33 354.75 343.004 355.266 343.484C355.781 343.953 356.555 344.188 357.586 344.188ZM379.699 344.012C380.707 344.012 381.715 343.854 382.723 343.537V346.648C382.266 346.848 381.674 347.012 380.947 347.141C380.232 347.281 379.488 347.352 378.715 347.352C374.801 347.352 372.844 345.289 372.844 341.164V330.688H370.189V328.859L373.037 327.348L374.443 323.234H376.992V327.559H382.529V330.688H376.992V341.094C376.992 342.09 377.238 342.828 377.73 343.309C378.234 343.777 378.891 344.012 379.699 344.012ZM386.01 344.803C386.01 343.947 386.232 343.291 386.678 342.834C387.123 342.377 387.768 342.148 388.611 342.148C389.467 342.148 390.117 342.389 390.562 342.869C391.008 343.338 391.23 343.982 391.23 344.803C391.23 345.635 391.002 346.297 390.545 346.789C390.1 347.27 389.455 347.51 388.611 347.51C387.768 347.51 387.123 347.27 386.678 346.789C386.232 346.309 386.01 345.646 386.01 344.803Z" fill="white"/>
</g>
<defs>
<filter id="filter0_d" x="928" y="329" width="72" height="72" filterUnits="userSpaceOnUse" color-interpolation-filters="sRGB">
<feFlood flood-opacity="0" result="BackgroundImageFix"/>
<feColorMatrix in="SourceAlpha" type="matrix" values="0 0 0 0 0 0 0 0 0 0 0 0 0 0 0 0 0 0 127 0"/>
<feOffset dy="4"/>
<feGaussianBlur stdDeviation="2"/>
<feColorMatrix type="matrix" values="0 0 0 0 0 0 0 0 0 0 0 0 0 0 0 0 0 0 0.25 0"/>
<feBlend mode="normal" in2="BackgroundImageFix" result="effect1_dropShadow"/>
<feBlend mode="normal" in="SourceGraphic" in2="effect1_dropShadow" result="shape"/>
</filter>
<filter id="filter1_d" x="824" y="329" width="72" height="72" filterUnits="userSpaceOnUse" color-interpolation-filters="sRGB">
<feFlood flood-opacity="0" result="BackgroundImageFix"/>
<feColorMatrix in="SourceAlpha" type="matrix" values="0 0 0 0 0 0 0 0 0 0 0 0 0 0 0 0 0 0 127 0"/>
<feOffset dy="4"/>
<feGaussianBlur stdDeviation="2"/>
<feColorMatrix type="matrix" values="0 0 0 0 0 0 0 0 0 0 0 0 0 0 0 0 0 0 0.25 0"/>
<feBlend mode="normal" in2="BackgroundImageFix" result="effect1_dropShadow"/>
<feBlend mode="normal" in="SourceGraphic" in2="effect1_dropShadow" result="shape"/>
</filter>
<filter id="filter2_d" x="720" y="329" width="72" height="72" filterUnits="userSpaceOnUse" color-interpolation-filters="sRGB">
<feFlood flood-opacity="0" result="BackgroundImageFix"/>
<feColorMatrix in="SourceAlpha" type="matrix" values="0 0 0 0 0 0 0 0 0 0 0 0 0 0 0 0 0 0 127 0"/>
<feOffset dy="4"/>
<feGaussianBlur stdDeviation="2"/>
<feColorMatrix type="matrix" values="0 0 0 0 0 0 0 0 0 0 0 0 0 0 0 0 0 0 0.25 0"/>
<feBlend mode="normal" in2="BackgroundImageFix" result="effect1_dropShadow"/>
<feBlend mode="normal" in="SourceGraphic" in2="effect1_dropShadow" result="shape"/>
</filter>
<filter id="filter3_d" x="980" y="245" width="72" height="72" filterUnits="userSpaceOnUse" color-interpolation-filters="sRGB">
<feFlood flood-opacity="0" result="BackgroundImageFix"/>
<feColorMatrix in="SourceAlpha" type="matrix" values="0 0 0 0 0 0 0 0 0 0 0 0 0 0 0 0 0 0 127 0"/>
<feOffset dy="4"/>
<feGaussianBlur stdDeviation="2"/>
<feColorMatrix type="matrix" values="0 0 0 0 0 0 0 0 0 0 0 0 0 0 0 0 0 0 0.25 0"/>
<feBlend mode="normal" in2="BackgroundImageFix" result="effect1_dropShadow"/>
<feBlend mode="normal" in="SourceGraphic" in2="effect1_dropShadow" result="shape"/>
</filter>
<filter id="filter4_d" x="876" y="245" width="72" height="72" filterUnits="userSpaceOnUse" color-interpolation-filters="sRGB">
<feFlood flood-opacity="0" result="BackgroundImageFix"/>
<feColorMatrix in="SourceAlpha" type="matrix" values="0 0 0 0 0 0 0 0 0 0 0 0 0 0 0 0 0 0 127 0"/>
<feOffset dy="4"/>
<feGaussianBlur stdDeviation="2"/>
<feColorMatrix type="matrix" values="0 0 0 0 0 0 0 0 0 0 0 0 0 0 0 0 0 0 0.25 0"/>
<feBlend mode="normal" in2="BackgroundImageFix" result="effect1_dropShadow"/>
<feBlend mode="normal" in="SourceGraphic" in2="effect1_dropShadow" result="shape"/>
</filter>
<filter id="filter5_d" x="772" y="246" width="72" height="72" filterUnits="userSpaceOnUse" color-interpolation-filters="sRGB">
<feFlood flood-opacity="0" result="BackgroundImageFix"/>
<feColorMatrix in="SourceAlpha" type="matrix" values="0 0 0 0 0 0 0 0 0 0 0 0 0 0 0 0 0 0 127 0"/>
<feOffset dy="4"/>
<feGaussianBlur stdDeviation="2"/>
<feColorMatrix type="matrix" values="0 0 0 0 0 0 0 0 0 0 0 0 0 0 0 0 0 0 0.25 0"/>
<feBlend mode="normal" in2="BackgroundImageFix" result="effect1_dropShadow"/>
<feBlend mode="normal" in="SourceGraphic" in2="effect1_dropShadow" result="shape"/>
</filter>
<filter id="filter6_d" x="668" y="245" width="72" height="72" filterUnits="userSpaceOnUse" color-interpolation-filters="sRGB">
<feFlood flood-opacity="0" result="BackgroundImageFix"/>
<feColorMatrix in="SourceAlpha" type="matrix" values="0 0 0 0 0 0 0 0 0 0 0 0 0 0 0 0 0 0 127 0"/>
<feOffset dy="4"/>
<feGaussianBlur stdDeviation="2"/>
<feColorMatrix type="matrix" values="0 0 0 0 0 0 0 0 0 0 0 0 0 0 0 0 0 0 0.25 0"/>
<feBlend mode="normal" in2="BackgroundImageFix" result="effect1_dropShadow"/>
<feBlend mode="normal" in="SourceGraphic" in2="effect1_dropShadow" result="shape"/>
</filter>
<filter id="filter7_d" x="980" y="161" width="72" height="72" filterUnits="userSpaceOnUse" color-interpolation-filters="sRGB">
<feFlood flood-opacity="0" result="BackgroundImageFix"/>
<feColorMatrix in="SourceAlpha" type="matrix" values="0 0 0 0 0 0 0 0 0 0 0 0 0 0 0 0 0 0 127 0"/>
<feOffset dy="4"/>
<feGaussianBlur stdDeviation="2"/>
<feColorMatrix type="matrix" values="0 0 0 0 0 0 0 0 0 0 0 0 0 0 0 0 0 0 0.25 0"/>
<feBlend mode="normal" in2="BackgroundImageFix" result="effect1_dropShadow"/>
<feBlend mode="normal" in="SourceGraphic" in2="effect1_dropShadow" result="shape"/>
</filter>
<filter id="filter8_d" x="876" y="161" width="72" height="72" filterUnits="userSpaceOnUse" color-interpolation-filters="sRGB">
<feFlood flood-opacity="0" result="BackgroundImageFix"/>
<feColorMatrix in="SourceAlpha" type="matrix" values="0 0 0 0 0 0 0 0 0 0 0 0 0 0 0 0 0 0 127 0"/>
<feOffset dy="4"/>
<feGaussianBlur stdDeviation="2"/>
<feColorMatrix type="matrix" values="0 0 0 0 0 0 0 0 0 0 0 0 0 0 0 0 0 0 0.25 0"/>
<feBlend mode="normal" in2="BackgroundImageFix" result="effect1_dropShadow"/>
<feBlend mode="normal" in="SourceGraphic" in2="effect1_dropShadow" result="shape"/>
</filter>
<filter id="filter9_d" x="772" y="161" width="72" height="72" filterUnits="userSpaceOnUse" color-interpolation-filters="sRGB">
<feFlood flood-opacity="0" result="BackgroundImageFix"/>
<feColorMatrix in="SourceAlpha" type="matrix" values="0 0 0 0 0 0 0 0 0 0 0 0 0 0 0 0 0 0 127 0"/>
<feOffset dy="4"/>
<feGaussianBlur stdDeviation="2"/>
<feColorMatrix type="matrix" values="0 0 0 0 0 0 0 0 0 0 0 0 0 0 0 0 0 0 0.25 0"/>
<feBlend mode="normal" in2="BackgroundImageFix" result="effect1_dropShadow"/>
<feBlend mode="normal" in="SourceGraphic" in2="effect1_dropShadow" result="shape"/>
</filter>
<filter id="filter10_d" x="668" y="161" width="72" height="72" filterUnits="userSpaceOnUse" color-interpolation-filters="sRGB">
<feFlood flood-opacity="0" result="BackgroundImageFix"/>
<feColorMatrix in="SourceAlpha" type="matrix" values="0 0 0 0 0 0 0 0 0 0 0 0 0 0 0 0 0 0 127 0"/>
<feOffset dy="4"/>
<feGaussianBlur stdDeviation="2"/>
<feColorMatrix type="matrix" values="0 0 0 0 0 0 0 0 0 0 0 0 0 0 0 0 0 0 0.25 0"/>
<feBlend mode="normal" in2="BackgroundImageFix" result="effect1_dropShadow"/>
<feBlend mode="normal" in="SourceGraphic" in2="effect1_dropShadow" result="shape"/>
</filter>
<filter id="filter11_d" x="188.51" y="207.648" width="373.941" height="156" filterUnits="userSpaceOnUse" color-interpolation-filters="sRGB">
<feFlood flood-opacity="0" result="BackgroundImageFix"/>
<feColorMatrix in="SourceAlpha" type="matrix" values="0 0 0 0 0 0 0 0 0 0 0 0 0 0 0 0 0 0 127 0"/>
<feOffset dy="4"/>
<feGaussianBlur stdDeviation="2"/>
<feColorMatrix type="matrix" values="0 0 0 0 0 0 0 0 0 0 0 0 0 0 0 0 0 0 0.25 0"/>
<feBlend mode="normal" in2="BackgroundImageFix" result="effect1_dropShadow"/>
<feBlend mode="normal" in="SourceGraphic" in2="effect1_dropShadow" result="shape"/>
</filter>
<linearGradient id="paint0_linear" x1="1356.34" y1="276.5" x2="573.443" y2="262.066" gradientUnits="userSpaceOnUse">
<stop stop-color="#504EC7"/>
<stop offset="1" stop-color="#EA19EE"/>
</linearGradient>
<clipPath id="clip0">
<rect width="64" height="64" fill="white" transform="translate(984 245)"/>
</clipPath>
<clipPath id="clip1">
<rect width="64" height="64" fill="white" transform="translate(880 245)"/>
</clipPath>
<clipPath id="clip2">
<rect width="64" height="64" fill="white" transform="translate(776 161)"/>
</clipPath>
</defs>
</svg>
